<svg width="284" height="284" viewBox="0 0 284 284" fill="none" xmlns="http://www.w3.org/2000/svg">
<rect x="3" y="3" width="278" height="278" rx="17" fill="#FAFBFD" stroke="white" stroke-width="6"/>
<path fill-rule="evenodd" clip-rule="evenodd" d="M126.839 146.043C126.839 137.67 133.627 130.882 142 130.882C150.374 130.882 157.162 137.67 157.162 146.043C157.162 154.417 150.374 161.205 142 161.205C133.627 161.205 126.839 154.417 126.839 146.043ZM142 136.946C136.976 136.946 132.903 141.019 132.903 146.043C132.903 151.067 136.976 155.14 142 155.14C147.024 155.14 151.097 151.067 151.097 146.043C151.097 141.019 147.024 136.946 142 136.946Z" fill="#EBEDEF"/>
<path fill-rule="evenodd" clip-rule="evenodd" d="M136.405 116.731C132.179 116.731 128.754 120.157 128.754 124.382C128.754 127.075 126.687 129.316 124.003 129.534L114.989 130.266C113.219 130.41 111.763 131.719 111.433 133.464C109.619 143.046 109.483 152.87 111.033 162.499L111.426 164.942C111.798 167.249 113.696 169.004 116.025 169.193L123.878 169.831C135.94 170.81 148.061 170.81 160.122 169.831L167.975 169.193C170.304 169.004 172.203 167.249 172.574 164.942L172.967 162.499C174.517 152.87 174.382 143.046 172.567 133.464C172.237 131.719 170.781 130.41 169.011 130.266L159.997 129.534C157.313 129.316 155.246 127.075 155.246 124.382C155.246 120.157 151.821 116.731 147.595 116.731H136.405ZM122.714 123.555C123.142 116.365 129.108 110.667 136.405 110.667H147.595C154.892 110.667 160.858 116.365 161.286 123.555L169.502 124.222C173.994 124.587 177.688 127.908 178.526 132.336C180.471 142.608 180.616 153.14 178.955 163.462L178.561 165.905C177.746 170.969 173.578 174.822 168.466 175.238L160.613 175.875C148.225 176.881 135.776 176.881 123.387 175.875L115.534 175.238C110.422 174.822 106.254 170.969 105.439 165.905L105.046 163.462C103.384 153.14 103.529 142.608 105.474 132.336C106.313 127.908 110.006 124.587 114.498 124.222L122.714 123.555Z" fill="#EBEDEF"/>
</svg>
