<svg width="29" height="29" viewBox="0 0 29 29" fill="none" xmlns="http://www.w3.org/2000/svg">
<path d="M14.5001 0C8.19608 0 3.06738 5.12864 3.06738 11.4327C3.06738 15.3614 5.05955 18.8335 8.08659 20.8923V28.1634C8.08659 28.4473 8.23052 28.7118 8.46892 28.8659C8.7072 29.02 9.00751 29.0427 9.26642 28.9263L14.5001 26.5712L19.7337 28.9263C19.8433 28.9756 19.9603 29 20.0769 29C20.2357 29 20.3937 28.9548 20.5312 28.8659C20.7696 28.7118 20.9135 28.4473 20.9135 28.1635V20.8923C23.9406 18.8335 25.9327 15.3615 25.9327 11.4327C25.9327 5.12864 20.8041 0 14.5001 0ZM19.2404 26.8697L14.8433 24.8911C14.7342 24.8419 14.6171 24.8173 14.5001 24.8173C14.383 24.8173 14.266 24.8418 14.1568 24.891L9.7597 26.8697V21.838C10.1801 22.0297 10.6117 22.1944 11.0514 22.3333C11.0763 22.3413 11.1012 22.3494 11.1262 22.3571C11.1823 22.3743 11.2386 22.391 11.295 22.4074C11.3367 22.4196 11.3785 22.4317 11.4203 22.4435C11.4658 22.4562 11.5115 22.4685 11.5571 22.4806C11.6104 22.4948 11.6637 22.5087 11.7173 22.5222C11.7551 22.5316 11.793 22.5409 11.8309 22.5499C11.8925 22.5647 11.9542 22.579 12.0162 22.5928C12.0483 22.5999 12.0805 22.607 12.1127 22.6138C12.1805 22.6283 12.2486 22.642 12.317 22.6553C12.3448 22.6607 12.3726 22.6662 12.4005 22.6714C12.4728 22.6849 12.5455 22.6975 12.6184 22.7097C12.6433 22.7139 12.6683 22.7182 12.6933 22.7221C12.7685 22.7341 12.844 22.7452 12.9197 22.7557C12.9432 22.7589 12.9666 22.7624 12.99 22.7655C13.0667 22.7756 13.1436 22.7848 13.2207 22.7934C13.2437 22.7959 13.2665 22.7988 13.2895 22.8013C13.3664 22.8095 13.4435 22.8164 13.5209 22.823C13.5443 22.825 13.5676 22.8274 13.5912 22.8292C13.6673 22.8352 13.7439 22.84 13.8205 22.8446C13.8451 22.8461 13.8695 22.848 13.8942 22.8493C13.9717 22.8534 14.0494 22.8561 14.1272 22.8586C14.1507 22.8594 14.1739 22.8607 14.1974 22.8613C14.298 22.8639 14.3989 22.8654 14.5002 22.8654C14.6014 22.8654 14.7023 22.8639 14.8029 22.8613C14.8264 22.8607 14.8497 22.8594 14.8731 22.8586C14.9509 22.8561 15.0286 22.8533 15.1061 22.8493C15.1306 22.848 15.1552 22.8461 15.1798 22.8446C15.2564 22.84 15.333 22.8353 15.4091 22.8292C15.4327 22.8274 15.456 22.825 15.4794 22.823C15.5568 22.8164 15.6339 22.8094 15.7108 22.8013C15.7338 22.7989 15.7566 22.796 15.7796 22.7934C15.8567 22.7847 15.9336 22.7756 16.0103 22.7655C16.0338 22.7624 16.0571 22.7589 16.0806 22.7557C16.1562 22.7452 16.2317 22.7341 16.307 22.7221C16.332 22.7181 16.3569 22.7138 16.382 22.7097C16.4548 22.6975 16.5275 22.6849 16.5998 22.6714C16.6277 22.6662 16.6555 22.6608 16.6833 22.6553C16.7516 22.6421 16.8197 22.6283 16.8876 22.6138C16.9199 22.607 16.952 22.5999 16.9841 22.5928C17.0461 22.579 17.1078 22.5647 17.1694 22.5499C17.2073 22.5409 17.2452 22.5316 17.283 22.5222C17.3366 22.5088 17.3899 22.4949 17.4432 22.4806C17.4888 22.4684 17.5345 22.4563 17.58 22.4435C17.6218 22.4317 17.6636 22.4196 17.7053 22.4074C17.7617 22.3909 17.818 22.3743 17.8741 22.3571C17.8991 22.3493 17.924 22.3412 17.9489 22.3333C18.3886 22.1944 18.8202 22.0297 19.2406 21.8381V26.8697H19.2404ZM17.6849 20.6582C17.6516 20.6697 17.6182 20.6812 17.5847 20.6924C17.5339 20.7094 17.4828 20.7261 17.4315 20.7423C17.3719 20.761 17.312 20.7791 17.2521 20.7966C17.2098 20.8091 17.1674 20.8215 17.1248 20.8334C17.0455 20.8555 16.9659 20.8767 16.8859 20.8968C16.8561 20.9044 16.8262 20.9115 16.7964 20.9187C16.7182 20.9377 16.6396 20.9557 16.5609 20.9727C16.5411 20.977 16.5214 20.9815 16.5016 20.9856C16.4 21.0068 16.298 21.0266 16.1957 21.0445C16.1852 21.0464 16.1748 21.0479 16.1643 21.0498C16.0721 21.0657 15.9796 21.0802 15.8869 21.0934C15.866 21.0964 15.8451 21.0993 15.8241 21.1022C15.7253 21.1156 15.6263 21.128 15.5269 21.1384C15.5232 21.1388 15.5194 21.1393 15.5157 21.1397C15.4117 21.1505 15.3073 21.1594 15.2028 21.1668C15.1802 21.1685 15.1574 21.1697 15.1347 21.1712C15.0534 21.1765 14.9721 21.1806 14.8906 21.1839C14.8629 21.185 14.8352 21.1861 14.8075 21.187C14.7052 21.1902 14.6027 21.1923 14.5001 21.1923C14.3974 21.1923 14.295 21.1902 14.1926 21.1869C14.1649 21.1861 14.1372 21.1849 14.1095 21.1838C14.028 21.1805 13.9467 21.1763 13.8655 21.1711C13.8428 21.1696 13.82 21.1684 13.7973 21.1667C13.6928 21.1592 13.5885 21.1503 13.4844 21.1396C13.4807 21.1392 13.477 21.1387 13.4732 21.1383C13.3739 21.1279 13.2749 21.1155 13.176 21.1021C13.1551 21.0993 13.1342 21.0963 13.1133 21.0933C13.0206 21.08 12.9281 21.0656 12.8359 21.0497C12.8254 21.0479 12.815 21.0463 12.8045 21.0444C12.7021 21.0265 12.6001 21.0066 12.4986 20.9855C12.4788 20.9813 12.4591 20.9767 12.4393 20.9725C12.3605 20.9556 12.282 20.9375 12.2037 20.9186C12.1738 20.9114 12.1439 20.9042 12.1142 20.8967C12.0343 20.8767 11.9546 20.8554 11.8753 20.8333C11.8327 20.8214 11.7904 20.809 11.7481 20.7965C11.6881 20.7789 11.6283 20.7609 11.5686 20.7421C11.5173 20.7259 11.4663 20.7093 11.4154 20.6923C11.3818 20.6811 11.3485 20.6696 11.3152 20.6581C7.49283 19.3349 4.74043 15.6994 4.74043 11.4327C4.74043 6.05126 9.11858 1.67305 14.5001 1.67305C19.8815 1.67305 24.2597 6.0512 24.2597 11.4327C24.2597 15.6994 21.5072 19.3349 17.6849 20.6582Z" fill="#E9C169"/>
<path d="M19.4629 11.4328L21.0341 8.4796C21.1697 8.22488 21.1644 7.91829 21.0201 7.66845C20.8758 7.4186 20.613 7.26063 20.3246 7.25066L16.9814 7.13483L15.2094 4.29748C15.0566 4.05279 14.7884 3.90405 14.4999 3.90405C14.2114 3.90405 13.9432 4.05279 13.7904 4.29748L12.0185 7.13483L8.67526 7.25066C8.38691 7.26063 8.12404 7.4186 7.97977 7.66845C7.83551 7.91829 7.83013 8.22488 7.96573 8.4796L9.53699 11.4328L7.96573 14.3861C7.83013 14.6408 7.83551 14.9474 7.97977 15.1972C8.12404 15.4471 8.38691 15.605 8.67526 15.615L12.0185 15.7308L13.7904 18.5682C13.9432 18.8129 14.2114 18.9616 14.4999 18.9616C14.7884 18.9616 15.0566 18.8129 15.2094 18.5682L16.9813 15.7308L20.3245 15.615C20.6129 15.605 20.8758 15.4471 21.02 15.1972C21.1643 14.9474 21.1697 14.6408 21.0341 14.3861L19.4629 11.4328ZM16.4786 14.0742C16.2006 14.0838 15.9454 14.2311 15.7981 14.4671L14.4999 16.5459L13.2018 14.4672C13.0544 14.2312 12.7993 14.0839 12.5212 14.0742L10.072 13.9893L11.2231 11.8258C11.3538 11.5801 11.3538 11.2856 11.2231 11.0399L10.072 8.87636L12.5212 8.79146C12.7993 8.78183 13.0544 8.63451 13.2018 8.39849L14.4999 6.31983L15.7981 8.39854C15.9454 8.63456 16.2005 8.78183 16.4786 8.79152L18.9278 8.87642L17.7767 11.04C17.6461 11.2856 17.6461 11.5802 17.7768 11.8258L18.9279 13.9894L16.4786 14.0742Z" fill="#E9C169"/>
</svg>
