<svg width="44" height="44" viewBox="0 0 44 44" fill="none" xmlns="http://www.w3.org/2000/svg">
<path d="M18.1794 18.2465V13.0403C18.1794 12.281 17.5638 11.6653 16.8044 11.6653H12.9733C12.2139 11.6653 11.5983 12.281 11.5983 13.0403V16.8715C11.5983 17.6309 12.2139 18.2465 12.9733 18.2465H18.1794ZM12.9733 8.91534H16.8044C19.0826 8.91534 20.9294 10.7622 20.9294 13.0403V19.6215C20.9294 20.3809 20.3138 20.9965 19.5544 20.9965H12.9733C10.6951 20.9965 8.84827 19.1497 8.84827 16.8715V13.0403C8.84827 10.7622 10.6951 8.91534 12.9733 8.91534ZM25.9041 25.7483V30.9618C25.9041 31.7212 26.5197 32.3368 27.2791 32.3368H31.1176C31.877 32.3368 32.4926 31.7212 32.4926 30.9618V27.1233C32.4926 26.3639 31.877 25.7483 31.1176 25.7483H25.9041ZM31.1176 35.0868H27.2791C25.0009 35.0868 23.1541 33.24 23.1541 30.9618V24.3733C23.1541 23.6139 23.7697 22.9983 24.5291 22.9983H31.1176C33.3958 22.9983 35.2426 24.8451 35.2426 27.1233V30.9618C35.2426 33.24 33.3958 35.0868 31.1176 35.0868Z" fill="#274765"/>
<path d="M25.9041 11.3715V18.2465H32.7791C33.5385 18.2465 34.1541 17.6309 34.1541 16.8715V11.3715C34.1541 10.6121 33.5385 9.99649 32.7791 9.99649H27.2791C26.5197 9.99649 25.9041 10.6121 25.9041 11.3715ZM32.7791 7.24649C35.0573 7.24649 36.9041 9.09332 36.9041 11.3715V16.8715C36.9041 19.1497 35.0573 20.9965 32.7791 20.9965H24.5291C23.7697 20.9965 23.1541 20.3809 23.1541 19.6215V11.3715C23.1541 9.09332 25.0009 7.24649 27.2791 7.24649H32.7791ZM18.2039 25.7483H11.3289C10.5695 25.7483 9.95386 26.3639 9.95386 27.1233V32.6233C9.95386 33.3827 10.5695 33.9983 11.3289 33.9983H16.8289C17.5882 33.9983 18.2039 33.3827 18.2039 32.6233V25.7483ZM11.3289 36.7483C9.05068 36.7483 7.20386 34.9015 7.20386 32.6233V27.1233C7.20386 24.8451 9.05068 22.9983 11.3289 22.9983H19.5789C20.3382 22.9983 20.9539 23.6139 20.9539 24.3733V32.6233C20.9539 34.9015 19.107 36.7483 16.8289 36.7483H11.3289Z" fill="#274765"/>
</svg>
