<svg width="30" height="30" viewBox="0 0 30 30" fill="none" xmlns="http://www.w3.org/2000/svg">
<path d="M20.6924 10.7925C21.1025 10.3825 21.1025 9.71762 20.6924 9.30755C20.2823 8.89748 19.6175 8.89748 19.2074 9.30755L15 13.515L10.7925 9.30755C10.3825 8.89748 9.71763 8.89748 9.30756 9.30755C8.8975 9.71762 8.8975 10.3825 9.30756 10.7925L13.515 15L9.30755 19.2074C8.89748 19.6175 8.89748 20.2824 9.30755 20.6924C9.71762 21.1025 10.3825 21.1025 10.7925 20.6924L15 16.485L19.2074 20.6924C19.6175 21.1025 20.2824 21.1025 20.6924 20.6924C21.1025 20.2824 21.1025 19.6175 20.6924 19.2074L16.485 15L20.6924 10.7925Z" fill="black"/>
</svg>
