<svg width="20" height="20" viewBox="0 0 20 20" fill="none" xmlns="http://www.w3.org/2000/svg">
<path d="M13.3882 7.49565C13.6323 7.25157 13.6323 6.85585 13.3882 6.61177C13.1441 6.36769 12.7484 6.36769 12.5043 6.61177L9.99999 9.1161L7.49566 6.61177C7.25158 6.36769 6.85585 6.36769 6.61178 6.61177C6.3677 6.85585 6.3677 7.25158 6.61178 7.49565L9.11611 9.99998L6.61177 12.5043C6.36769 12.7484 6.36769 13.1441 6.61177 13.3882C6.85585 13.6323 7.25158 13.6323 7.49565 13.3882L9.99999 10.8839L12.5043 13.3882C12.7484 13.6323 13.1441 13.6323 13.3882 13.3882C13.6323 13.1441 13.6323 12.7484 13.3882 12.5043L10.8839 9.99998L13.3882 7.49565Z" fill="#274765"/>
</svg>
