<svg width="20" height="20" viewBox="0 0 20 20" fill="none" xmlns="http://www.w3.org/2000/svg">
<path fill-rule="evenodd" clip-rule="evenodd" d="M6.875 10C6.875 8.27411 8.27411 6.875 10 6.875C11.7259 6.875 13.125 8.27411 13.125 10C13.125 11.7259 11.7259 13.125 10 13.125C8.27411 13.125 6.875 11.7259 6.875 10ZM10 8.125C8.96447 8.125 8.125 8.96447 8.125 10C8.125 11.0355 8.96447 11.875 10 11.875C11.0355 11.875 11.875 11.0355 11.875 10C11.875 8.96447 11.0355 8.125 10 8.125Z" fill="#B1B1B1"/>
<path fill-rule="evenodd" clip-rule="evenodd" d="M3.60285 8.87196C3.25359 9.37524 3.125 9.76892 3.125 10C3.125 10.2311 3.25359 10.6248 3.60285 11.128C3.94048 11.6145 4.44231 12.1419 5.07723 12.6292C6.34982 13.6059 8.09454 14.375 10 14.375C11.9055 14.375 13.6502 13.6059 14.9228 12.6292C15.5577 12.1419 16.0595 11.6145 16.3971 11.128C16.7464 10.6248 16.875 10.2311 16.875 10C16.875 9.76892 16.7464 9.37524 16.3971 8.87196C16.0595 8.38546 15.5577 7.8581 14.9228 7.37081C13.6502 6.3941 11.9055 5.625 10 5.625C8.09454 5.625 6.34982 6.3941 5.07723 7.37081C4.44231 7.8581 3.94048 8.38546 3.60285 8.87196ZM4.31617 6.37919C5.75804 5.27257 7.76332 4.375 10 4.375C12.2367 4.375 14.242 5.27257 15.6838 6.37919C16.4061 6.93357 17.0027 7.55204 17.4241 8.15929C17.8339 8.74976 18.125 9.39775 18.125 10C18.125 10.6022 17.8339 11.2502 17.4241 11.8407C17.0027 12.448 16.4061 13.0664 15.6838 13.6208C14.242 14.7274 12.2367 15.625 10 15.625C7.76332 15.625 5.75804 14.7274 4.31617 13.6208C3.59385 13.0664 2.99734 12.448 2.57592 11.8407C2.16614 11.2502 1.875 10.6022 1.875 10C1.875 9.39775 2.16614 8.74976 2.57592 8.15929C2.99734 7.55204 3.59385 6.93357 4.31617 6.37919Z" fill="#B1B1B1"/>
</svg>
