<svg width="20" height="20" viewBox="0 0 20 20" fill="none" xmlns="http://www.w3.org/2000/svg">
<path d="M10.0002 8.12516C8.96463 8.12516 8.12516 8.96463 8.12516 10.0002C8.12516 11.0357 8.96463 11.8752 10.0002 11.8752C11.0357 11.8752 11.8752 11.0357 11.8752 10.0002C11.8752 8.96463 11.0357 8.12516 10.0002 8.12516Z" fill="#B1B1B1"/>
<path fill-rule="evenodd" clip-rule="evenodd" d="M10.0002 4.5835C7.81869 4.5835 5.85684 5.45965 4.44318 6.54463C3.73543 7.08782 3.15469 7.6911 2.74724 8.27823C2.34755 8.85417 2.0835 9.45977 2.0835 10.0002C2.0835 10.5406 2.34755 11.1462 2.74724 11.7221C3.15469 12.3092 3.73543 12.9125 4.44318 13.4557C5.85684 14.5407 7.81869 15.4168 10.0002 15.4168C12.1816 15.4168 14.1435 14.5407 15.5571 13.4557C16.2649 12.9125 16.8456 12.3092 17.2531 11.7221C17.6528 11.1462 17.9168 10.5406 17.9168 10.0002C17.9168 9.45977 17.6528 8.85417 17.2531 8.27823C16.8456 7.6911 16.2649 7.08782 15.5571 6.54463C14.1435 5.45965 12.1816 4.5835 10.0002 4.5835ZM6.87516 10.0002C6.87516 8.27427 8.27427 6.87516 10.0002 6.87516C11.7261 6.87516 13.1252 8.27427 13.1252 10.0002C13.1252 11.7261 11.7261 13.1252 10.0002 13.1252C8.27427 13.1252 6.87516 11.7261 6.87516 10.0002Z" fill="#B1B1B1"/>
</svg>
