<svg width="16" height="16" viewBox="0 0 16 16" fill="none" xmlns="http://www.w3.org/2000/svg">
<path d="M9.46658 1.91663C8.64883 1.91663 7.86458 2.24148 7.28634 2.81971C6.7081 3.39795 6.38325 4.18221 6.38325 4.99996V6.71663H4.73325C4.65041 6.71663 4.58325 6.78378 4.58325 6.86663V9.13329C4.58325 9.21613 4.65041 9.28329 4.73325 9.28329H6.38325V13.9333C6.38325 14.0161 6.45041 14.0833 6.53325 14.0833H8.79992C8.88276 14.0833 8.94992 14.0161 8.94992 13.9333V9.28329H10.6145C10.6834 9.28329 10.7434 9.23645 10.7601 9.16967L11.3267 6.90301C11.3504 6.80833 11.2788 6.71663 11.1812 6.71663H8.94992V4.99996C8.94992 4.86293 9.00435 4.73151 9.10125 4.63462C9.19814 4.53773 9.32956 4.48329 9.46658 4.48329H11.1999C11.2828 4.48329 11.3499 4.41614 11.3499 4.33329V2.06663C11.3499 1.98378 11.2828 1.91663 11.1999 1.91663H9.46658Z" fill="white"/>
</svg>
