<svg width="18" height="18" viewBox="0 0 18 18" fill="none" xmlns="http://www.w3.org/2000/svg">
<path fill-rule="evenodd" clip-rule="evenodd" d="M13.4903 4.06846C10.5066 3.73499 7.49515 3.73499 4.51153 4.06846C4.30965 4.09102 4.21243 4.32776 4.34019 4.48569L6.97796 7.74635C7.92288 8.91441 8.4384 10.3713 8.4384 11.8737V14.0407L9.5634 14.8657V11.8737C9.5634 10.3713 10.0789 8.91441 11.0238 7.74635L13.6616 4.48569C13.7894 4.32776 13.6922 4.09102 13.4903 4.06846ZM4.38657 2.95042C7.45324 2.60767 10.5486 2.60767 13.6152 2.95042C14.7004 3.07171 15.223 4.3443 14.5362 5.19324L11.8985 8.4539C11.1155 9.42172 10.6884 10.6289 10.6884 11.8737V15.9757C10.6884 16.1877 10.5692 16.3816 10.3802 16.4775C10.1911 16.5733 9.96419 16.5547 9.79326 16.4293L7.54326 14.7793C7.39876 14.6733 7.3134 14.5049 7.3134 14.3257V11.8737C7.3134 10.6289 6.88625 9.42173 6.10332 8.4539L3.46555 5.19324C2.77879 4.3443 3.30138 3.07171 4.38657 2.95042Z" fill="#B1B1B1"/>
</svg>
