<svg width="20" height="20" viewBox="0 0 20 20" fill="none" xmlns="http://www.w3.org/2000/svg">
<path d="M12.9167 9.99998C12.9167 9.30962 13.4763 8.74998 14.1667 8.74998C14.8571 8.74998 15.4167 9.30962 15.4167 9.99998C15.4167 10.6903 14.8571 11.25 14.1667 11.25C13.4763 11.25 12.9167 10.6903 12.9167 9.99998Z" fill="white"/>
<path fill-rule="evenodd" clip-rule="evenodd" d="M17.0345 5.56166C16.4864 4.27361 15.2752 3.34767 13.8339 3.19601L13.2907 3.13884C10.5471 2.85013 7.77982 2.86917 5.04045 3.1956L4.6805 3.2385C3.28984 3.40421 2.18796 4.49072 2.00273 5.87892C1.63776 8.61418 1.63776 11.3858 2.00273 14.1211C2.18796 15.5093 3.28984 16.5958 4.6805 16.7615L5.04045 16.8044C7.77982 17.1308 10.5471 17.1498 13.2907 16.8611L13.8339 16.804C15.2752 16.6523 16.4864 15.7264 17.0345 14.4383C17.9005 14.1805 18.5615 13.4297 18.67 12.502C18.8644 10.8396 18.8644 9.16033 18.67 7.49801C18.5615 6.57033 17.9005 5.81951 17.0345 5.56166ZM13.1599 4.38198C10.509 4.10302 7.83518 4.12142 5.18836 4.43682L4.82841 4.47972C4.0044 4.57791 3.35151 5.2217 3.24175 6.04424C2.89142 8.66978 2.89142 11.3302 3.24175 13.9557C3.35151 14.7783 4.0044 15.4221 4.82841 15.5203L5.18836 15.5632C7.83518 15.8786 10.509 15.897 13.1599 15.618L13.7031 15.5608C14.4119 15.4863 15.039 15.1369 15.4736 14.6183C14.2168 14.6916 12.9433 14.6588 11.7015 14.52C10.6437 14.4018 9.7882 13.5688 9.66342 12.502C9.46899 10.8396 9.46899 9.16033 9.66342 7.49801C9.7882 6.43113 10.6437 5.59818 11.7015 5.47996C12.9433 5.34116 14.2168 5.30841 15.4736 5.3817C15.039 4.8631 14.4119 4.51373 13.7031 4.43914L13.1599 4.38198ZM16.0645 6.6789C16.065 6.6821 16.0655 6.6853 16.066 6.6885L16.0711 6.72091L16.2366 6.6952C16.3222 6.70368 16.4078 6.71268 16.4931 6.72222C16.9826 6.77693 17.3724 7.16372 17.4285 7.64322C17.6116 9.20906 17.6116 10.7909 17.4285 12.3568C17.3724 12.8363 16.9826 13.223 16.4931 13.2778C16.4078 13.2873 16.3222 13.2963 16.2366 13.3048L16.0711 13.2791L16.066 13.3115C16.0655 13.3147 16.065 13.3179 16.0645 13.3211C14.6657 13.4476 13.231 13.4332 11.8403 13.2778C11.3508 13.223 10.961 12.8363 10.905 12.3568C10.7218 10.7909 10.7218 9.20906 10.905 7.64322C10.961 7.16372 11.3508 6.77693 11.8403 6.72222C13.231 6.56679 14.6657 6.55235 16.0645 6.6789Z" fill="white"/>
</svg>
