<svg width="33" height="33" viewBox="0 0 33 33" fill="none" xmlns="http://www.w3.org/2000/svg">
<path d="M31.0202 9.24001C30.9207 9.16338 30.8054 9.10998 30.6826 9.08371C30.5598 9.05745 30.4328 9.05898 30.3107 9.08821L27.146 9.90001C25.9778 9.83401 22.2521 8.40181 20.1302 7.49101L20.0873 7.47451C17.2691 6.46141 14.8304 6.68911 12.791 8.13451C10.0784 7.20721 6.60346 9.16411 5.53096 9.83401L2.67975 9.10141C2.55792 9.06955 2.4304 9.06611 2.30703 9.09137C2.18366 9.11663 2.06774 9.16991 1.96824 9.24709C1.86873 9.32427 1.7883 9.42329 1.73314 9.5365C1.67799 9.64971 1.6496 9.77408 1.65015 9.90001V21.45C1.65015 21.6688 1.73707 21.8787 1.89179 22.0334C2.04651 22.1881 2.25635 22.275 2.47515 22.275H4.22745L11.7284 28.1886C12.0162 28.4656 12.3669 28.6687 12.7504 28.7807C13.1338 28.8927 13.5387 28.9102 13.9304 28.8317C14.3221 28.7533 14.689 28.5812 14.9997 28.3301C15.3104 28.079 15.5558 27.7565 15.7148 27.39C16.0886 27.6042 16.5115 27.7179 16.9424 27.72C17.4259 27.7202 17.899 27.5787 18.3031 27.3131C18.7072 27.0474 19.0246 26.6692 19.2161 26.2251C19.5892 26.441 20.0126 26.5548 20.4437 26.5551C20.9267 26.5547 21.399 26.4129 21.8025 26.1473C22.2059 25.8816 22.5228 25.5038 22.7141 25.0602C23.095 25.2765 23.5267 25.3876 23.9648 25.3819C24.4028 25.3762 24.8315 25.2541 25.2068 25.028C25.582 24.8019 25.8903 24.48 26.1001 24.0954C26.3098 23.7107 26.4134 23.2772 26.4002 22.8393L28.1657 22.275H30.5252C30.744 22.275 30.9538 22.1881 31.1085 22.0334C31.2632 21.8787 31.3502 21.6688 31.3502 21.45V9.90001C31.3507 9.77184 31.3211 9.64534 31.2638 9.53071C31.2064 9.41607 31.123 9.3165 31.0202 9.24001ZM3.30015 10.956L4.77526 11.3355L4.18456 16.83L3.77535 20.625H3.30015V10.956ZM24.5258 23.4828C24.3689 23.634 24.1595 23.7185 23.9417 23.7185C23.7238 23.7185 23.5144 23.634 23.3576 23.4828L22.1927 22.3179L17.5265 17.6484C17.3697 17.5074 17.1649 17.4319 16.9541 17.4371C16.7434 17.4424 16.5426 17.5282 16.3931 17.6769C16.2436 17.8255 16.1567 18.0258 16.1502 18.2365C16.1438 18.4472 16.2182 18.6524 16.3583 18.81L21.0278 23.4861C21.1778 23.6419 21.2607 23.8504 21.2585 24.0668C21.2563 24.2831 21.1693 24.4899 21.0161 24.6426C20.8629 24.7954 20.6559 24.8819 20.4395 24.8834C20.2232 24.885 20.0149 24.8015 19.8596 24.651L18.6914 23.4828L15.1802 19.9815C15.1035 19.9048 15.0124 19.844 14.9122 19.8024C14.8119 19.7609 14.7045 19.7396 14.5961 19.7396C14.4876 19.7396 14.3802 19.7609 14.2799 19.8024C14.1797 19.844 14.0887 19.9048 14.012 19.9815C13.9353 20.0582 13.8744 20.1493 13.8329 20.2495C13.7914 20.3497 13.77 20.4571 13.77 20.5656C13.77 20.6741 13.7914 20.7815 13.8329 20.8817C13.8744 20.9819 13.9353 21.073 14.012 21.1497L17.5265 24.651C17.6051 24.7272 17.6679 24.8183 17.7109 24.9191C17.754 25.0198 17.7766 25.1281 17.7774 25.2376C17.7782 25.3471 17.7572 25.4557 17.7156 25.5571C17.6739 25.6584 17.6126 25.7504 17.535 25.8278C17.4574 25.9051 17.3652 25.9662 17.2638 26.0076C17.1623 26.0489 17.0537 26.0696 16.9441 26.0685C16.8346 26.0674 16.7264 26.0445 16.6258 26.0012C16.5252 25.9578 16.4342 25.8948 16.3583 25.8159L12.8702 22.3179C12.7938 22.2412 12.703 22.1803 12.6031 22.1387C12.5031 22.0972 12.396 22.0758 12.2877 22.0758C12.1795 22.0758 12.0723 22.0972 11.9723 22.1387C11.8724 22.1803 11.7816 22.2412 11.7053 22.3179C11.6283 22.3937 11.5674 22.4842 11.526 22.5839C11.4847 22.6837 11.4637 22.7907 11.4644 22.8987C11.464 23.0071 11.4851 23.1146 11.5264 23.2148C11.5678 23.3151 11.6285 23.4062 11.7053 23.4828L14.0384 25.8159C14.1927 25.9711 14.2794 26.1811 14.2794 26.4C14.2794 26.6189 14.1927 26.8289 14.0384 26.9841C13.8807 27.1338 13.6716 27.2173 13.4543 27.2173C13.2369 27.2173 13.0278 27.1338 12.8702 26.9841C12.8476 26.9604 12.8233 26.9384 12.7976 26.9181L5.38245 21.0837L6.21076 13.431L6.45165 11.2002C7.50106 10.5402 9.55036 9.52051 11.2499 9.55021C10.7448 10.1334 10.2931 10.7607 9.90016 11.4246C9.53619 12.0448 9.42031 12.7797 9.57579 13.4818C9.73126 14.1839 10.1466 14.8012 10.7384 15.2097C11.9066 16.0083 14.0384 16.7508 16.6784 14.4705L24.5258 22.3146C24.6793 22.4702 24.7654 22.6801 24.7654 22.8987C24.7654 23.1173 24.6793 23.3272 24.5258 23.4828ZM25.8227 21.2949C25.7825 21.2442 25.7395 21.1957 25.694 21.1497L17.84 13.2957C18.17 12.9195 18.5 12.5004 18.83 12.0252C18.905 11.9382 18.961 11.8364 18.9944 11.7265C19.0278 11.6166 19.0379 11.5009 19.024 11.3868C19.0101 11.2728 18.9725 11.1629 18.9137 11.0642C18.8549 10.9655 18.7761 10.8802 18.6824 10.8137C18.5886 10.7472 18.4821 10.7011 18.3695 10.6782C18.2569 10.6553 18.1408 10.6561 18.0285 10.6807C17.9163 10.7053 17.8104 10.753 17.7177 10.8209C17.625 10.8888 17.5475 10.9753 17.4902 11.0748C16.025 13.1505 13.8338 15.3153 11.6822 13.8468C11.4378 13.6728 11.2682 13.4131 11.207 13.1194C11.1458 12.8258 11.1977 12.5199 11.3522 12.2628C11.887 11.3073 12.5863 10.4538 13.418 9.74161C13.4447 9.72253 13.4701 9.70157 13.4939 9.67891C15.1439 8.35891 17.1239 8.15761 19.5263 9.01891C20.15 9.28291 24.3047 11.0418 26.4827 11.4609L27.2087 20.8626L25.8227 21.2949ZM29.7002 20.625H28.8158L28.0997 11.3553L29.7002 10.956V20.625Z" fill="#274765"/>
</svg>
