<svg width="16" height="16" viewBox="0 0 16 16" fill="none" xmlns="http://www.w3.org/2000/svg">
<path d="M8.49996 4.66675C8.49996 4.39061 8.2761 4.16675 7.99996 4.16675C7.72382 4.16675 7.49996 4.39061 7.49996 4.66675V7.50008H4.66663C4.39048 7.50008 4.16663 7.72394 4.16663 8.00008C4.16663 8.27622 4.39048 8.50008 4.66663 8.50008H7.49996V11.3334C7.49996 11.6096 7.72382 11.8334 7.99996 11.8334C8.2761 11.8334 8.49996 11.6096 8.49996 11.3334V8.50008H11.3333C11.6094 8.50008 11.8333 8.27622 11.8333 8.00008C11.8333 7.72394 11.6094 7.50008 11.3333 7.50008H8.49996V4.66675Z" fill="white"/>
</svg>
