<svg width="10" height="10" viewBox="0 0 10 10" fill="none" xmlns="http://www.w3.org/2000/svg">
<path d="M7.07712 8.92084L6.93739 9.49201C6.51822 9.65746 6.18338 9.78338 5.93405 9.86996C5.68444 9.9568 5.39442 10 5.06398 10C4.55652 10 4.16182 9.87569 3.88031 9.62878C3.5988 9.38088 3.458 9.06674 3.458 8.68566C3.458 8.53814 3.46822 8.38641 3.48946 8.2318C3.51088 8.07702 3.54493 7.9027 3.59154 7.70786L4.11539 5.85372C4.162 5.67617 4.20161 5.50795 4.23334 5.34886C4.26551 5.19076 4.28102 5.0453 4.28102 4.91436C4.28102 4.67758 4.23199 4.51195 4.13439 4.41883C4.03679 4.32598 3.85055 4.27884 3.57406 4.27884C3.43864 4.27884 3.29945 4.30053 3.15758 4.34247C3.01508 4.3846 2.89328 4.42528 2.79102 4.46311L2.9311 3.89148C3.27427 3.75176 3.60229 3.63211 3.91607 3.53281C4.22984 3.43323 4.52632 3.3834 4.80675 3.3834C5.31071 3.3834 5.69959 3.5052 5.97268 3.7488C6.24576 3.99258 6.38226 4.30859 6.38226 4.69801C6.38226 4.77858 6.3733 4.92055 6.35403 5.12346C6.33521 5.32681 6.30016 5.51314 6.24908 5.68262L5.72746 7.52933C5.68471 7.67766 5.64626 7.84723 5.61283 8.03804C5.57833 8.22759 5.56184 8.37242 5.56184 8.46958C5.56184 8.71479 5.61651 8.88221 5.72612 8.9712C5.83654 9.0602 6.02672 9.10448 6.29685 9.10448C6.42366 9.10448 6.56796 9.08198 6.7283 9.0378C6.88819 8.99361 7.00479 8.9548 7.07712 8.92084ZM7.2094 1.1678C7.2094 1.48955 7.08814 1.76434 6.84445 1.99028C6.60139 2.21703 6.3085 2.3305 5.96586 2.3305C5.62216 2.3305 5.32855 2.21703 5.08271 1.99028C4.83732 1.76425 4.71435 1.48955 4.71435 1.1678C4.71435 0.84668 4.83732 0.571444 5.08271 0.342633C5.3281 0.114181 5.62225 0 5.96586 0C6.30841 0 6.60139 0.11445 6.84445 0.342633C7.08832 0.571444 7.2094 0.846769 7.2094 1.1678Z" fill="#C2AF52"/>
</svg>
