<svg width="14" height="14" viewBox="0 0 14 14" fill="none" xmlns="http://www.w3.org/2000/svg">
<path d="M6.99998 5.10415C5.95294 5.10415 5.10415 5.95295 5.10415 6.99999C5.10415 8.04703 5.95294 8.89582 6.99998 8.89582C8.04702 8.89582 8.89582 8.04703 8.89582 6.99999C8.89582 5.95295 8.04702 5.10415 6.99998 5.10415Z" fill="white"/>
<path fill-rule="evenodd" clip-rule="evenodd" d="M3.94888 1.79751C5.96029 1.57271 8.0397 1.57271 10.0511 1.79751C11.1585 1.92128 12.0517 2.79381 12.1817 3.9051C12.4222 5.96135 12.4222 8.03862 12.1817 10.0949C12.0517 11.2062 11.1585 12.0787 10.0511 12.2025C8.0397 12.4273 5.96029 12.4273 3.94888 12.2025C2.84148 12.0787 1.94829 11.2062 1.81831 10.0949C1.57782 8.03862 1.57782 5.96135 1.81831 3.9051C1.94829 2.79381 2.84148 1.92128 3.94888 1.79751ZM9.91665 3.49999C9.59448 3.49999 9.33332 3.76115 9.33332 4.08332C9.33332 4.40549 9.59448 4.66665 9.91665 4.66665C10.2388 4.66665 10.5 4.40549 10.5 4.08332C10.5 3.76115 10.2388 3.49999 9.91665 3.49999ZM4.22915 6.99999C4.22915 5.4697 5.4697 4.22915 6.99998 4.22915C8.53027 4.22915 9.77082 5.4697 9.77082 6.99999C9.77082 8.53027 8.53027 9.77082 6.99998 9.77082C5.4697 9.77082 4.22915 8.53027 4.22915 6.99999Z" fill="white"/>
</svg>
