<svg width="38" height="38" viewBox="0 0 38 38" fill="none" xmlns="http://www.w3.org/2000/svg">
<path fill-rule="evenodd" clip-rule="evenodd" d="M18.9993 3.56244C16.6205 3.56244 14.3855 4.21921 12.4638 5.33896C12.3238 5.41475 12.2005 5.5179 12.1012 5.64227C12.0019 5.76665 11.9287 5.90971 11.8857 6.06297C11.8428 6.21622 11.8312 6.37654 11.8514 6.5344C11.8717 6.69225 11.9235 6.84442 12.0037 6.98187C12.0839 7.11932 12.191 7.23924 12.3184 7.33451C12.4459 7.42978 12.5913 7.49844 12.7458 7.53644C12.9004 7.57443 13.061 7.58097 13.2181 7.55566C13.3752 7.53036 13.5257 7.47373 13.6605 7.38914C15.2403 6.46858 17.0556 5.93732 18.9993 5.93732C24.8813 5.93732 29.6863 10.7423 29.6863 16.6243C29.6863 19.4131 28.3421 21.9765 26.4788 24.4609C24.6191 26.9405 22.2157 29.3365 19.8389 31.7131C19.3654 32.1865 18.6333 32.1865 18.1598 31.7131C15.7829 29.3365 13.3796 26.9405 11.5199 24.4609C9.65659 21.9765 8.31238 19.4131 8.31238 16.6243C8.31238 14.6805 8.84362 12.8653 9.76421 11.2854C9.84879 11.1506 9.90542 11.0002 9.93072 10.8431C9.95602 10.6859 9.94949 10.5253 9.91149 10.3708C9.8735 10.2162 9.80483 10.0709 9.70957 9.94339C9.6143 9.8159 9.49438 9.70886 9.35693 9.62863C9.21948 9.5484 9.06731 9.49662 8.90946 9.47636C8.7516 9.4561 8.59128 9.46777 8.43803 9.51069C8.28477 9.5536 8.14171 9.62689 8.01733 9.72619C7.89296 9.82548 7.78981 9.94877 7.71402 10.0887C6.59424 12.0104 5.9375 14.2454 5.9375 16.6243C5.9375 20.1685 7.61506 23.2142 9.6181 25.8849C11.6247 28.5603 14.1075 31.0192 16.4807 33.3922C17.8618 34.7732 20.1368 34.7732 21.518 33.3922C23.8912 31.0192 26.374 28.5603 28.3806 25.8849C30.3836 23.2142 32.0611 20.1685 32.0611 16.6243C32.0611 9.4464 26.1771 3.56244 18.9993 3.56244ZM18.9947 10.6848C15.7297 10.6848 13.0598 13.3616 13.0598 16.6266C13.0598 19.8916 15.7297 22.5615 18.9947 22.5615C22.2597 22.5615 24.9389 19.8916 24.9388 16.6266C24.9388 13.3616 22.2596 10.6848 18.9947 10.6848ZM18.9947 13.0596C20.9762 13.0596 22.564 14.6451 22.564 16.6266C22.564 18.6081 20.9762 20.1866 18.9947 20.1866C17.0132 20.1866 15.437 18.6081 15.437 16.6266C15.437 14.6451 17.0132 13.0596 18.9947 13.0596Z" fill="#274765"/>
</svg>
