<svg width="20" height="20" viewBox="0 0 20 20" fill="none" xmlns="http://www.w3.org/2000/svg">
<path fill-rule="evenodd" clip-rule="evenodd" d="M3.53271 8.6596C3.54472 5.12578 6.41918 2.27078 9.953 2.28275C13.4868 2.2948 16.3418 5.16926 16.3299 8.70308V8.77554C16.2863 11.0726 15.0037 13.1958 13.4313 14.8553C12.532 15.7891 11.5277 16.6159 10.4385 17.319C10.1473 17.5709 9.71526 17.5709 9.42402 17.319C7.80027 16.2621 6.37516 14.9278 5.21387 13.377C4.17884 12.0247 3.59119 10.3833 3.53271 8.68134V8.6596Z" stroke="#274765" stroke-width="1.5" stroke-linecap="round" stroke-linejoin="round"/>
<path d="M9.93072 10.8336C11.0634 10.8336 11.9815 9.91541 11.9815 8.78277C11.9815 7.65012 11.0634 6.73193 9.93072 6.73193C8.79807 6.73193 7.87988 7.65012 7.87988 8.78277C7.87988 9.91541 8.79807 10.8336 9.93072 10.8336Z" stroke="#274765" stroke-width="1.5" stroke-linecap="round" stroke-linejoin="round"/>
</svg>
