<svg width="125" height="28" viewBox="0 0 125 28" fill="none" xmlns="http://www.w3.org/2000/svg">
<path d="M10.5 23.6187C15.1944 23.6187 19 19.8131 19 15.1187C19 10.4242 15.1944 6.61865 10.5 6.61865C5.80558 6.61865 2 10.4242 2 15.1187C2 19.8131 5.80558 23.6187 10.5 23.6187Z" fill="#E22813"/>
<path d="M8 14C8.55228 14 9 13.5523 9 13C9 12.4477 8.55228 12 8 12C7.44772 12 7 12.4477 7 13C7 13.5523 7.44772 14 8 14Z" fill="white"/>
<path d="M13 14C13.5523 14 14 13.5523 14 13C14 12.4477 13.5523 12 13 12C12.4477 12 12 12.4477 12 13C12 13.5523 12.4477 14 13 14Z" fill="white"/>
<path d="M38.944 20.7201C38.944 21.4241 38.736 21.9841 38.32 22.4001C37.904 22.8001 37.296 23.0001 36.496 23.0001C36.288 23.0001 36.08 22.9761 35.872 22.9281C35.664 22.8801 35.44 22.7921 35.2 22.6641C34.976 22.5361 34.776 22.4161 34.6 22.3041C34.424 22.1921 34.2 22.0241 33.928 21.8001C33.672 21.5601 33.464 21.3761 33.304 21.2481C33.16 21.1041 32.928 20.8801 32.608 20.5761C32.288 20.2721 32.056 20.0481 31.912 19.9041L27.52 15.7521V20.9601C27.52 21.7441 27.368 22.2801 27.064 22.5681C26.776 22.8561 26.312 23.0001 25.672 23.0001C24.968 23.0001 24.448 22.8401 24.112 22.5201C23.776 22.2001 23.608 21.6641 23.608 20.9121V9.32006C23.608 8.40806 23.84 7.72006 24.304 7.25606C24.768 6.79206 25.432 6.56006 26.296 6.56006C26.888 6.56006 27.36 6.65606 27.712 6.84806C28.08 7.02406 28.512 7.35206 29.008 7.83206L35.08 13.8801V8.64806C35.08 7.96006 35.248 7.44806 35.584 7.11206C35.936 6.76006 36.408 6.58406 37 6.58406C37.688 6.58406 38.184 6.74406 38.488 7.06406C38.792 7.38406 38.944 7.90406 38.944 8.62406V20.7201Z" fill="#282828"/>
<path d="M50.6055 0.484863C50.0814 0.484863 49.6541 0.644363 49.3237 0.963363C49.0047 1.28236 48.8452 1.70386 48.8452 2.22796V24.2568C48.8452 24.7809 49.0047 25.2025 49.3237 25.5215C49.6541 25.8405 50.0814 26 50.6055 26H52.8442C53.3683 26 53.7899 25.8405 54.1089 25.5215C54.4279 25.2025 54.5874 24.7809 54.5874 24.2568L54.5532 15.5068H63.6963C64.2204 15.5068 64.6419 15.3473 64.9609 15.0283C65.2799 14.6979 65.4395 14.2707 65.4395 13.7466V12.7725C65.4395 12.2484 65.2799 11.8268 64.9609 11.5078C64.6419 11.1774 64.2204 11.0122 63.6963 11.0122H54.5532V4.96236H64.9438C65.4679 4.96236 65.8895 4.80286 66.2085 4.48386C66.5389 4.16486 66.7041 3.74326 66.7041 3.21916V2.22796C66.7041 1.70386 66.5389 1.28236 66.2085 0.963363C65.8895 0.644363 65.4679 0.484863 64.9438 0.484863H50.6055ZM70.6084 0.484863C70.0843 0.484863 69.6571 0.644363 69.3267 0.963363C69.0076 1.28236 68.8481 1.70386 68.8481 2.22796V24.2227C68.8481 24.7467 69.0076 25.1683 69.3267 25.4873C69.6571 25.8063 70.0843 25.9658 70.6084 25.9658H72.8472C73.3713 25.9658 73.7928 25.8063 74.1118 25.4873C74.4308 25.1683 74.5903 24.7467 74.5903 24.2227L74.5562 2.22796C74.5562 1.70386 74.3966 1.28236 74.0776 0.963363C73.7586 0.644363 73.3371 0.484863 72.813 0.484863H70.6084ZM79.2466 24.2568C79.2466 24.7809 79.4061 25.2025 79.7251 25.5215C80.0555 25.8405 80.4827 26 81.0068 26H83.2456C83.7697 26 84.1912 25.8405 84.5103 25.5215C84.8293 25.2025 84.9888 24.7809 84.9888 24.2568V16.9424H89.6885L95.0376 25.1968C95.1857 25.436 95.3965 25.6297 95.6699 25.7778C95.9434 25.9259 96.2225 26 96.5073 26H98.8145C99.7829 26 100.398 25.7493 100.66 25.248C100.922 24.7467 100.786 24.0973 100.25 23.2998L95.5674 16.1221C96.4788 15.7803 97.2764 15.3132 97.96 14.7207C98.6549 14.1283 99.1904 13.4902 99.5664 12.8066C99.9424 12.1117 100.222 11.4224 100.404 10.7388C100.586 10.0552 100.677 9.38866 100.677 8.73926C100.677 6.09596 99.7772 4.06796 97.9771 2.65526C96.1769 1.23106 93.4141 0.518963 89.6885 0.518963H81.0068C80.4827 0.518963 80.0555 0.678462 79.7251 0.997562C79.4061 1.31656 79.2466 1.73806 79.2466 2.26216V24.2568ZM84.9888 12.4819V4.96236H89.8936C91.6481 4.96236 92.9071 5.26426 93.6704 5.86816C94.4451 6.47196 94.8325 7.42896 94.8325 8.73926C94.8325 9.81016 94.5192 10.7046 93.8926 11.4224C93.266 12.1287 92.3887 12.4819 91.2607 12.4819H84.9888ZM106.41 0.484863C105.886 0.484863 105.459 0.644363 105.128 0.963363C104.809 1.28236 104.65 1.70386 104.65 2.22796V24.2568C104.65 24.7809 104.809 25.2025 105.128 25.5215C105.459 25.8405 105.886 26 106.41 26H120.783C121.307 26 121.728 25.8405 122.047 25.5215C122.378 25.2025 122.543 24.7809 122.543 24.2568V23.2998C122.543 22.7757 122.378 22.3542 122.047 22.0352C121.728 21.7161 121.307 21.5566 120.783 21.5566H110.392L110.358 15.5068H119.501C120.025 15.5068 120.447 15.3473 120.766 15.0283C121.085 14.6979 121.244 14.2707 121.244 13.7466V12.7383C121.244 12.2142 121.085 11.7926 120.766 11.4736C120.447 11.1432 120.025 10.978 119.501 10.978H110.358V4.92816H120.749C121.273 4.92816 121.694 4.76866 122.013 4.44966C122.344 4.13066 122.509 3.70906 122.509 3.18506V2.22796C122.509 1.70386 122.344 1.28236 122.013 0.963363C121.694 0.644363 121.273 0.484863 120.749 0.484863H106.41Z" fill="#282828"/>
</svg>
