<svg width="35" height="35" viewBox="0 0 35 35" fill="none" xmlns="http://www.w3.org/2000/svg">
<g clip-path="url(#clip0_263_2558)">
<path d="M7.31445 12.9883C7.31445 18.6424 11.9143 23.2422 17.5684 23.2422C23.2225 23.2422 27.8223 18.6424 27.8223 12.9883C27.8223 7.33422 23.2225 2.73438 17.5684 2.73438C11.9143 2.73438 7.31445 7.33422 7.31445 12.9883ZM17.5684 4.10156C22.4686 4.10156 26.4551 8.08804 26.4551 12.9883C26.4551 17.8885 22.4686 21.875 17.5684 21.875C12.6681 21.875 8.68164 17.8885 8.68164 12.9883C8.68164 8.08804 12.6681 4.10156 17.5684 4.10156Z" fill="#274765"/>
<path d="M11.2378 11.7697L13.8875 14.3804L13.2779 18.0497C13.2354 18.3052 13.3409 18.5626 13.5505 18.7148C13.7599 18.867 14.0373 18.8876 14.2672 18.7685L17.5685 17.0542L20.8696 18.7685C21.0976 18.8868 21.375 18.8684 21.5863 18.7148C21.7959 18.5626 21.9014 18.3052 21.8589 18.0497L21.2493 14.3804L23.899 11.7697C24.0835 11.5881 24.1495 11.3179 24.0694 11.0714C23.9893 10.8252 23.777 10.6455 23.5209 10.6068L19.8436 10.0532L18.1798 6.72575C18.0641 6.49423 17.8273 6.3479 17.5685 6.3479C17.3095 6.3479 17.0729 6.49423 16.957 6.72575L15.2932 10.0532L11.6159 10.6068C11.3598 10.6452 11.1475 10.8252 11.0674 11.0714C10.9873 11.3179 11.0535 11.5881 11.2378 11.7697ZM15.8478 11.3523C16.0678 11.3192 16.258 11.1811 16.3576 10.9822L17.5685 8.55997L18.7795 10.9822C18.8791 11.1811 19.0692 11.3192 19.2893 11.3523L21.9657 11.7552L20.037 13.6552C19.8786 13.8114 19.806 14.0349 19.8423 14.2544L20.2861 16.9249L17.8834 15.6774C17.7848 15.6261 17.6767 15.6005 17.5685 15.6005C17.4604 15.6005 17.3522 15.6261 17.2534 15.6774L14.8507 16.9249L15.2945 14.2544C15.3311 14.0349 15.2585 13.8114 15.0998 13.6552L13.1714 11.7552L15.8478 11.3523Z" fill="#274765"/>
<path d="M18.252 0.683595C18.252 1.06117 17.9459 1.36719 17.5684 1.36719C17.1908 1.36719 16.8848 1.06117 16.8848 0.683595C16.8848 0.306015 17.1908 0 17.5684 0C17.9459 0 18.252 0.306015 18.252 0.683595Z" fill="#274765"/>
<path d="M14.3467 0.402906C8.5962 1.87076 4.58008 7.04605 4.58008 12.9882C4.58008 16.6789 6.13179 20.1564 8.85575 22.6192L4.73736 29.8773C4.60491 30.111 4.62147 30.4004 4.77955 30.6172C4.93763 30.8343 5.20786 30.9387 5.47089 30.884L10.1479 29.9128L11.7917 34.545C11.8809 34.797 12.1092 34.9735 12.3757 34.9973C12.6422 35.0211 12.8978 34.8868 13.03 34.6542L17.5684 26.6754L22.1065 34.6542C22.2288 34.8691 22.4564 34.9997 22.7004 34.9997C22.7204 34.9997 22.7407 34.9989 22.7608 34.9973C23.0273 34.9735 23.2556 34.7968 23.345 34.545L24.9886 29.9128L29.6656 30.884C29.9284 30.9385 30.1989 30.8341 30.3569 30.6172C30.5153 30.4004 30.5316 30.111 30.3991 29.8773L26.2807 22.6192C29.0047 20.1564 30.5564 16.6789 30.5564 12.9882C30.5564 7.04605 26.5403 1.87076 20.7901 0.402906C20.424 0.309446 20.052 0.530279 19.9586 0.896109C19.8651 1.26194 20.0859 1.63418 20.4518 1.72764C25.5963 3.04089 29.1895 7.67143 29.1895 12.9882C29.1895 19.4592 23.9341 24.6094 17.5684 24.6094C11.1981 24.6094 5.94727 19.4549 5.94727 12.9882C5.94727 7.67143 9.54015 3.04089 14.6847 1.72764C15.0506 1.63418 15.2714 1.26194 15.1782 0.896109C15.0847 0.530279 14.7128 0.309446 14.3467 0.402906ZM12.5805 32.6795L11.2371 28.8938C11.1228 28.5718 10.7885 28.3835 10.4539 28.453L6.67199 29.2383L9.93134 23.494C11.8318 24.8756 14.082 25.7173 16.422 25.9255L12.5805 32.6795ZM24.6826 28.453C24.3483 28.3835 24.0137 28.5718 23.8994 28.8938L22.5562 32.6795L18.7145 25.9255C21.0547 25.7173 23.3047 24.8756 25.2054 23.494L28.4648 29.2383L24.6826 28.453Z" fill="#274765"/>
</g>
<defs>
<clipPath id="clip0_263_2558">
<rect width="35" height="35" fill="white"/>
</clipPath>
</defs>
</svg>
