<svg width="18" height="18" viewBox="0 0 18 18" fill="none" xmlns="http://www.w3.org/2000/svg">
<path fill-rule="evenodd" clip-rule="evenodd" d="M2.10302 6.26497C1.89291 8.21714 1.90228 10.4686 2.19465 12.4129C2.35642 13.4887 3.23442 14.3134 4.31823 14.4076L5.4509 14.5061C7.81268 14.7114 10.1878 14.7114 12.5496 14.5061L13.6823 14.4076C14.7661 14.3134 15.6441 13.4887 15.8059 12.4129C16.0982 10.4686 16.1076 8.21727 15.8975 6.26509C15.8703 6.03877 15.8398 5.81275 15.8059 5.58712C15.6441 4.51132 14.7661 3.68659 13.6823 3.59238L12.5496 3.49391C10.1878 3.28861 7.81268 3.28861 5.4509 3.49391L4.31823 3.59238C3.23442 3.68659 2.35642 4.51132 2.19465 5.58712C2.16072 5.81271 2.13018 6.03869 2.10302 6.26497ZM5.54833 4.61469C7.84528 4.41502 10.1552 4.41502 12.4522 4.61469L13.5849 4.71315C14.1506 4.76233 14.6089 5.19284 14.6934 5.75441C14.7021 5.81273 14.7107 5.87107 14.719 5.92944L10.5482 8.24653C9.58552 8.78136 8.41494 8.78136 7.45224 8.24652L3.28154 5.92947C3.28984 5.87109 3.29837 5.81273 3.30714 5.75441C3.39159 5.19284 3.84991 4.76233 4.41565 4.71315L5.54833 4.61469ZM14.8566 7.13992C15.0021 8.84073 14.9477 10.5544 14.6934 12.2456C14.6089 12.8072 14.1506 13.2377 13.5849 13.2868L12.4522 13.3853C10.1552 13.585 7.84528 13.585 5.54833 13.3853L4.41565 13.2868C3.84991 13.2377 3.39159 12.8072 3.30714 12.2456C3.05282 10.5544 2.9984 8.84075 3.14388 7.13994L6.9059 9.22995C8.20837 9.95355 9.79209 9.95355 11.0946 9.22995L14.8566 7.13992Z" fill="#274765"/>
</svg>
