<svg width="30" height="30" viewBox="0 0 30 30" fill="none" xmlns="http://www.w3.org/2000/svg">
<path d="M15 18.5742C14.5154 18.5742 14.1211 18.1799 14.1211 17.6953C14.1211 17.3413 14.3317 17.0234 14.6577 16.8853C15.0513 16.7186 15.5223 16.8608 15.9503 17.2754C16.2989 17.6132 16.8553 17.6044 17.193 17.2558C17.5308 16.9072 17.522 16.3508 17.1734 16.013C16.7766 15.6286 16.3355 15.3569 15.8789 15.2036V14.1797C15.8789 13.6943 15.4854 13.3008 15 13.3008C14.5146 13.3008 14.1211 13.6943 14.1211 14.1797V15.2092C14.0712 15.227 14.0215 15.2457 13.9723 15.2666C12.9949 15.6806 12.3633 16.6339 12.3633 17.6953C12.3633 19.1492 13.5461 20.332 15 20.332C15.4846 20.332 15.8789 20.7263 15.8789 21.2109C15.8789 21.5793 15.6466 21.9114 15.3008 22.0373C14.8494 22.2016 14.3238 21.9787 13.8591 21.4253C13.5469 21.0536 12.9925 21.0053 12.6208 21.3175C12.2491 21.6297 12.2009 22.1841 12.513 22.5558C12.9882 23.1215 13.5412 23.5095 14.1211 23.7047V24.7266C14.1211 25.212 14.5147 25.6055 15.0001 25.6055C15.4854 25.6055 15.879 25.212 15.879 24.7266V23.6969C15.8868 23.6941 15.8947 23.6917 15.9025 23.6889C16.9397 23.3111 17.6367 22.3153 17.6367 21.2109C17.6367 19.7571 16.4539 18.5742 15 18.5742Z" fill="#274765"/>
<path d="M23.1398 13.1988C22.0952 11.9136 20.901 10.8898 19.5902 10.1535C19.8049 9.89947 19.9743 9.60164 20.0837 9.26971C20.5129 7.96254 19.8859 6.4098 18.2855 5.90396L20.529 1.99195C20.8121 1.49824 20.5578 0.869414 20.012 0.710742C18.3899 0.239121 16.7037 0 15 0C13.2963 0 11.6101 0.239121 9.98801 0.710742C9.44156 0.86959 9.18826 1.49883 9.47098 1.99195L11.7145 5.90402C10.1204 6.40729 9.48551 7.95773 9.91658 9.27041C10.0256 9.60146 10.195 9.89912 10.4103 10.1532C9.09926 10.8895 7.905 11.9135 6.86027 13.1988C4.77193 15.7679 3.57422 19.0086 3.57422 22.0898C3.57422 28.4819 8.67463 30 15 30C21.3298 30 26.4258 28.4793 26.4258 22.0898C26.4258 19.0086 25.2281 15.7679 23.1398 13.1988ZM11.572 2.12215C12.6933 1.8801 13.8421 1.75781 15 1.75781C16.1579 1.75781 17.3067 1.8801 18.428 2.12215L16.4924 5.49727C15.5011 5.35887 14.4992 5.35893 13.5076 5.49732L11.572 2.12215ZM12.1463 7.61109C13.6588 7.11492 15.2413 7.02088 16.7798 7.32844C16.7817 7.32879 16.7835 7.32914 16.7854 7.32949C17.1439 7.40144 17.5001 7.49508 17.8525 7.61068C18.3131 7.7625 18.5648 8.26072 18.4138 8.72051C18.3041 9.0535 18.0144 9.28283 17.6735 9.31998C16.7972 9.04559 15.9033 8.90625 15 8.90625C14.0985 8.90625 13.2064 9.045 12.3318 9.31828C11.9856 9.28266 11.6952 9.05168 11.5864 8.72133C11.4352 8.26072 11.6869 7.76244 12.1463 7.61109ZM15 28.2539C8.13305 28.2539 5.33203 26.4598 5.33203 22.0898C5.33203 19.4448 6.41326 16.5356 8.22422 14.3075C10.1341 11.958 12.5404 10.6641 15 10.6641C17.7074 10.6641 20.0755 12.2157 21.7758 14.3075C23.5867 16.5356 24.668 19.4448 24.668 22.0898C24.668 26.4598 21.867 28.2539 15 28.2539Z" fill="#274765"/>
</svg>
