<svg width="48" height="48" viewBox="0 0 48 48" fill="none" xmlns="http://www.w3.org/2000/svg">
<path d="M29.9609 34.6238C29.8098 34.625 29.6605 34.591 29.5248 34.5244L24 31.91L18.4751 34.5244C18.3105 34.6031 18.1278 34.636 17.9461 34.6196C17.7644 34.6032 17.5905 34.5381 17.4427 34.4311C17.296 34.3235 17.1809 34.1784 17.1095 34.0111C17.0382 33.8437 17.0131 33.6602 17.0371 33.4798L17.8301 27.4134L13.6175 22.9696C13.4923 22.8371 13.4051 22.6733 13.3651 22.4955C13.3252 22.3176 13.3339 22.1323 13.3903 21.959C13.4468 21.7857 13.5489 21.6308 13.686 21.5106C13.823 21.3904 13.99 21.3094 14.1692 21.2761L20.1849 20.1545L23.1096 14.7797C23.2055 14.6306 23.3372 14.508 23.4928 14.4231C23.6483 14.3382 23.8227 14.2938 24 14.2938C24.1772 14.2938 24.3516 14.3382 24.5071 14.4231C24.6627 14.508 24.7945 14.6306 24.8903 14.7797L27.815 20.1545L33.8307 21.2761C34.0099 21.3094 34.1769 21.3904 34.3139 21.5106C34.451 21.6308 34.5531 21.7857 34.6096 21.959C34.666 22.1323 34.6747 22.3176 34.6348 22.4955C34.5948 22.6733 34.5076 22.8371 34.3824 22.9696L30.1739 27.4134L30.9669 33.4798C30.9854 33.6235 30.973 33.7695 30.9304 33.9079C30.8878 34.0463 30.8161 34.174 30.72 34.2824C30.6239 34.3908 30.5057 34.4774 30.3734 34.5362C30.241 34.5951 30.0976 34.625 29.9528 34.6238H29.9609ZM24 29.756C24.151 29.7558 24.3 29.7898 24.436 29.8554L28.7135 31.8836L28.1051 27.1843C28.0855 27.0351 28.0994 26.8835 28.1457 26.7403C28.192 26.5972 28.2696 26.4662 28.3728 26.3567L31.6321 22.9088L26.9672 22.0387C26.8194 22.011 26.6795 21.9508 26.5578 21.8624C26.436 21.774 26.3355 21.6596 26.2634 21.5276L24 17.3859L21.7344 21.5478C21.6624 21.6799 21.5618 21.7943 21.4401 21.8827C21.3184 21.9711 21.1785 22.0313 21.0306 22.059L16.3657 22.9291L19.6251 26.377C19.7283 26.4865 19.8059 26.6175 19.8522 26.7606C19.8985 26.9038 19.9124 27.0554 19.8928 27.2045L19.2844 31.9039L23.5619 29.8757C23.6973 29.8049 23.8472 29.766 24 29.7621V29.756Z" fill="#274765"/>
<path d="M6.65874 30.0846C6.51371 30.0859 6.3701 30.056 6.23761 29.997C6.10511 29.938 5.98681 29.8512 5.8907 29.7426C5.79458 29.634 5.72288 29.506 5.68043 29.3673C5.63798 29.2287 5.62577 29.0825 5.64463 28.9387L6.26932 24.1845L2.98158 20.7041C2.8564 20.5718 2.76917 20.4081 2.72908 20.2304C2.68899 20.0527 2.69752 19.8675 2.75375 19.6942C2.80999 19.5209 2.91187 19.366 3.04868 19.2457C3.18549 19.1254 3.35218 19.0442 3.53123 19.0106L8.24887 18.1181L10.5326 13.9055C10.6199 13.7451 10.7489 13.6112 10.906 13.5181C11.0631 13.4249 11.2424 13.3759 11.4251 13.3762C11.6071 13.376 11.7859 13.4249 11.9426 13.5177C12.0992 13.6105 12.228 13.7438 12.3154 13.9035L14.4451 17.818C14.5739 18.0541 14.6037 18.3318 14.5278 18.5898C14.4519 18.8479 14.2766 19.0653 14.0404 19.1941C13.8043 19.3229 13.5266 19.3527 13.2686 19.2768C13.0105 19.2009 12.7931 19.0256 12.6643 18.7895L11.4251 16.5158L9.80248 19.5176C9.73045 19.6503 9.6297 19.7652 9.50759 19.854C9.38548 19.9428 9.24509 20.0031 9.09666 20.0307L5.73388 20.6615L8.08458 23.1441C8.18843 23.2535 8.26654 23.3848 8.31321 23.5283C8.35987 23.6719 8.37392 23.824 8.35433 23.9736L7.90813 27.3546L10.987 25.8882C11.1232 25.8234 11.2722 25.7897 11.423 25.7897C11.5739 25.7897 11.7229 25.8234 11.8591 25.8882L14.8609 27.308C15.0809 27.4359 15.2447 27.6418 15.32 27.8849C15.3952 28.128 15.3763 28.3905 15.267 28.6203C15.1578 28.8501 14.9661 29.0304 14.73 29.1254C14.494 29.2205 14.2308 29.2233 13.9928 29.1334L11.4271 27.9165L7.09684 29.9893C6.95975 30.0534 6.81006 30.0859 6.65874 30.0846ZM41.3413 30.0846C41.1896 30.0847 41.0399 30.0507 40.9032 29.9852L36.575 27.9266L34.0093 29.1435C33.888 29.214 33.7535 29.2586 33.6142 29.2744C33.4748 29.2902 33.3337 29.277 33.1998 29.2355C33.0658 29.1941 32.9419 29.1253 32.8359 29.0335C32.7299 28.9417 32.644 28.8289 32.5838 28.7023C32.5236 28.5757 32.4903 28.4379 32.486 28.2977C32.4817 28.1576 32.5065 28.0181 32.5589 27.888C32.6113 27.7579 32.6901 27.6401 32.7903 27.542C32.8905 27.4439 33.01 27.3677 33.1412 27.3181L36.143 25.8984C36.2792 25.8335 36.4281 25.7998 36.579 25.7998C36.7299 25.7998 36.8789 25.8335 37.0151 25.8984L40.0939 27.3648L39.6477 23.9837C39.6281 23.8341 39.6422 23.682 39.6888 23.5385C39.7355 23.395 39.8136 23.2637 39.9175 23.1542L42.2682 20.6717L38.9054 20.0409C38.757 20.0133 38.6166 19.9529 38.4945 19.8641C38.3723 19.7753 38.2716 19.6604 38.1996 19.5277L36.577 16.526L35.3398 18.7996C35.2109 19.0358 34.9936 19.2111 34.7355 19.2869C34.4774 19.3628 34.1998 19.3331 33.9636 19.2042C33.7275 19.0754 33.5522 18.858 33.4763 18.6C33.4004 18.3419 33.4302 18.0642 33.559 17.8281L35.6886 13.9136C35.776 13.7539 35.9048 13.6206 36.0615 13.5279C36.2182 13.4351 36.3969 13.3862 36.579 13.3863C36.7613 13.3864 36.9402 13.4356 37.0969 13.5287C37.2536 13.6219 37.3823 13.7556 37.4694 13.9157L39.7512 18.1181L44.4688 19.0024C44.6478 19.036 44.8145 19.1173 44.9513 19.2376C45.0881 19.3579 45.19 19.5128 45.2463 19.6861C45.3025 19.8594 45.311 20.0446 45.2709 20.2223C45.2308 20.4 45.1436 20.5636 45.0184 20.696L41.7206 24.1805L42.3452 28.9346C42.3641 29.0784 42.3519 29.2246 42.3094 29.3633C42.267 29.502 42.1953 29.6299 42.0992 29.7386C42.0031 29.8472 41.8848 29.9339 41.7523 29.9929C41.6198 30.0519 41.4762 30.0818 41.3311 30.0806L41.3413 30.0846Z" fill="#274765"/>
</svg>
