<svg width="24" height="24" viewBox="0 0 24 24" fill="none" xmlns="http://www.w3.org/2000/svg">
<circle cx="12" cy="12" r="12" fill="#F44B38"/>
<path d="M12.5 8.66675C12.5 8.39061 12.2761 8.16675 12 8.16675C11.7238 8.16675 11.5 8.39061 11.5 8.66675V11.5001H8.66663C8.39048 11.5001 8.16663 11.7239 8.16663 12.0001C8.16663 12.2762 8.39048 12.5001 8.66663 12.5001H11.5V15.3334C11.5 15.6096 11.7238 15.8334 12 15.8334C12.2761 15.8334 12.5 15.6096 12.5 15.3334V12.5001H15.3333C15.6094 12.5001 15.8333 12.2762 15.8333 12.0001C15.8333 11.7239 15.6094 11.5001 15.3333 11.5001H12.5V8.66675Z" fill="white"/>
</svg>
