<svg width="24" height="24" viewBox="0 0 24 24" fill="none" xmlns="http://www.w3.org/2000/svg">
<circle cx="12" cy="12" r="12" fill="#3B5B79"/>
<path d="M12.4998 8.66675C12.4998 8.39061 12.276 8.16675 11.9998 8.16675C11.7237 8.16675 11.4998 8.39061 11.4998 8.66675V11.5001H8.6665C8.39036 11.5001 8.1665 11.7239 8.1665 12.0001C8.1665 12.2762 8.39036 12.5001 8.6665 12.5001H11.4998V15.3334C11.4998 15.6096 11.7237 15.8334 11.9998 15.8334C12.276 15.8334 12.4998 15.6096 12.4998 15.3334V12.5001H15.3332C15.6093 12.5001 15.8332 12.2762 15.8332 12.0001C15.8332 11.7239 15.6093 11.5001 15.3332 11.5001H12.4998V8.66675Z" fill="white"/>
</svg>
