<svg width="28" height="28" viewBox="0 0 28 28" fill="none" xmlns="http://www.w3.org/2000/svg">
<g clip-path="url(#clip0_263_2571)">
<path d="M4.10156 10.3906H13.3984C13.8515 10.3906 14.2188 10.0233 14.2188 9.57031C14.2188 9.11728 13.8515 8.75 13.3984 8.75H4.10156C3.64853 8.75 3.28125 9.11728 3.28125 9.57031C3.28125 10.0233 3.64853 10.3906 4.10156 10.3906Z" fill="#274765"/>
<path d="M11.2109 12.0312H4.10156C3.64853 12.0312 3.28125 12.3985 3.28125 12.8516C3.28125 13.3046 3.64853 13.6719 4.10156 13.6719H11.2109C11.664 13.6719 12.0312 13.3046 12.0312 12.8516C12.0312 12.3985 11.664 12.0312 11.2109 12.0312Z" fill="#274765"/>
<path d="M11.2109 15.3125H4.10156C3.64853 15.3125 3.28125 15.6798 3.28125 16.1328C3.28125 16.5858 3.64853 16.9531 4.10156 16.9531H11.2109C11.664 16.9531 12.0312 16.5858 12.0312 16.1328C12.0312 15.6798 11.664 15.3125 11.2109 15.3125Z" fill="#274765"/>
<path d="M11.2109 18.5938H4.10156C3.64853 18.5938 3.28125 18.961 3.28125 19.4141C3.28125 19.8671 3.64853 20.2344 4.10156 20.2344H11.2109C11.664 20.2344 12.0312 19.8671 12.0312 19.4141C12.0312 18.961 11.664 18.5938 11.2109 18.5938Z" fill="#274765"/>
<path d="M27.7597 23.1266L23.6578 19.0246C25.3404 16.7772 25.1612 13.5675 23.1194 11.5256C22.5957 11.002 21.9885 10.5923 21.3281 10.3082V6.28906C21.3281 6.07152 21.2417 5.86288 21.0878 5.70905L15.6193 0.240297C15.4655 0.0864609 15.2568 0 15.0393 0H3.00781C1.3493 0 0 1.3493 0 3.00781V24.9922C0 26.6507 1.3493 28 3.00781 28H18.3203C19.9788 28 21.3281 26.6507 21.3281 24.9922V20.8637C21.7416 20.6858 22.1341 20.4588 22.4982 20.1852L26.5996 24.2866C26.7598 24.4468 26.9697 24.5269 27.1796 24.5269C27.3895 24.5269 27.5995 24.4468 27.7596 24.2866C28.0801 23.9663 28.0801 23.4469 27.7597 23.1266ZM21.9593 18.4862C21.4847 18.9607 20.9142 19.3039 20.2917 19.4992C20.2726 19.5044 20.2538 19.5103 20.2353 19.5168C19.8585 19.629 19.4633 19.6875 19.059 19.6875C17.9635 19.6875 16.9334 19.2609 16.1588 18.4862C15.3841 17.7115 14.9575 16.6815 14.9575 15.5859C14.9575 14.4904 15.3841 13.4604 16.1588 12.6857C16.9334 11.911 17.9635 11.4844 19.059 11.4844C19.4634 11.4844 19.8587 11.5429 20.2356 11.6552C20.2539 11.6616 20.2724 11.6674 20.2914 11.6726C20.914 11.8678 21.4847 12.2111 21.9593 12.6856C23.5584 14.2849 23.5584 16.887 21.9593 18.4862ZM18.5274 5.46875H15.8594V2.80077L18.5274 5.46875ZM19.6875 24.9922C19.6875 25.7461 19.0742 26.3594 18.3203 26.3594H3.00781C2.25395 26.3594 1.64062 25.7461 1.64062 24.9922V3.00781C1.64062 2.25395 2.25395 1.64062 3.00781 1.64062H14.2188V6.28906C14.2188 6.74209 14.586 7.10938 15.0391 7.10938H19.6875V9.87793C19.4802 9.85551 19.2705 9.84375 19.059 9.84375C17.5252 9.84375 16.0832 10.441 14.9987 11.5256C13.9141 12.6102 13.3168 14.0522 13.3168 15.5859C13.3168 17.1198 13.9141 18.5618 14.9987 19.6463C16.0832 20.7308 17.5252 21.3281 19.059 21.3281C19.2705 21.3281 19.4802 21.3164 19.6875 21.2939V24.9922Z" fill="#274765"/>
</g>
<defs>
<clipPath id="clip0_263_2571">
<rect width="28" height="28" fill="white"/>
</clipPath>
</defs>
</svg>
