<svg width="40" height="40" viewBox="0 0 40 40" fill="none" xmlns="http://www.w3.org/2000/svg">
<circle cx="20" cy="20" r="20" fill="#274765"/>
<path d="M22.9167 20C22.9167 19.3096 23.4763 18.75 24.1667 18.75C24.8571 18.75 25.4167 19.3096 25.4167 20C25.4167 20.6903 24.8571 21.25 24.1667 21.25C23.4763 21.25 22.9167 20.6903 22.9167 20Z" fill="white"/>
<path fill-rule="evenodd" clip-rule="evenodd" d="M27.0345 15.5617C26.4864 14.2736 25.2752 13.3477 23.8339 13.196L23.2907 13.1388C20.5471 12.8501 17.7798 12.8692 15.0405 13.1956L14.6805 13.2385C13.2898 13.4042 12.188 14.4907 12.0027 15.8789C11.6378 18.6142 11.6378 21.3858 12.0027 24.1211C12.188 25.5093 13.2898 26.5958 14.6805 26.7615L15.0405 26.8044C17.7798 27.1308 20.5471 27.1498 23.2907 26.8611L23.8339 26.804C25.2752 26.6523 26.4864 25.7264 27.0345 24.4383C27.9005 24.1805 28.5615 23.4297 28.67 22.502C28.8644 20.8396 28.8644 19.1603 28.67 17.498C28.5615 16.5703 27.9005 15.8195 27.0345 15.5617ZM23.1599 14.382C20.509 14.103 17.8352 14.1214 15.1884 14.4368L14.8284 14.4797C14.0044 14.5779 13.3515 15.2217 13.2418 16.0442C12.8914 18.6698 12.8914 21.3302 13.2418 23.9557C13.3515 24.7783 14.0044 25.4221 14.8284 25.5203L15.1884 25.5632C17.8352 25.8786 20.509 25.897 23.1599 25.618L23.7031 25.5608C24.4119 25.4863 25.039 25.1369 25.4736 24.6183C24.2168 24.6916 22.9433 24.6588 21.7015 24.52C20.6437 24.4018 19.7882 23.5688 19.6634 22.502C19.469 20.8396 19.469 19.1603 19.6634 17.498C19.7882 16.4311 20.6437 15.5982 21.7015 15.48C22.9433 15.3412 24.2168 15.3084 25.4736 15.3817C25.039 14.8631 24.4119 14.5137 23.7031 14.4391L23.1599 14.382ZM26.0645 16.6789C26.065 16.6821 26.0655 16.6853 26.066 16.6885L26.0711 16.7209L26.2366 16.6952C26.3222 16.7037 26.4078 16.7127 26.4931 16.7222C26.9826 16.7769 27.3724 17.1637 27.4285 17.6432C27.6116 19.2091 27.6116 20.7909 27.4285 22.3568C27.3724 22.8363 26.9826 23.223 26.4931 23.2778C26.4078 23.2873 26.3222 23.2963 26.2366 23.3048L26.0711 23.2791L26.066 23.3115C26.0655 23.3147 26.065 23.3179 26.0645 23.3211C24.6657 23.4476 23.231 23.4332 21.8403 23.2778C21.3508 23.223 20.961 22.8363 20.905 22.3568C20.7218 20.7909 20.7218 19.2091 20.905 17.6432C20.961 17.1637 21.3508 16.7769 21.8403 16.7222C23.231 16.5668 24.6657 16.5524 26.0645 16.6789Z" fill="white"/>
</svg>
