<svg width="20" height="20" viewBox="0 0 20 20" fill="none" xmlns="http://www.w3.org/2000/svg">
<path fill-rule="evenodd" clip-rule="evenodd" d="M6.45817 6.25016C6.45817 4.29415 8.04383 2.7085 9.99984 2.7085C11.9558 2.7085 13.5415 4.29415 13.5415 6.25016C13.5415 8.20617 11.9558 9.79183 9.99984 9.79183C8.04383 9.79183 6.45817 8.20617 6.45817 6.25016ZM9.99984 3.9585C8.73419 3.9585 7.70817 4.98451 7.70817 6.25016C7.70817 7.51581 8.73419 8.54183 9.99984 8.54183C11.2655 8.54183 12.2915 7.51581 12.2915 6.25016C12.2915 4.98451 11.2655 3.9585 9.99984 3.9585Z" fill="#274765"/>
<path fill-rule="evenodd" clip-rule="evenodd" d="M6.6665 12.2918C5.63097 12.2918 4.7915 13.1313 4.7915 14.1668V15.1571C4.7915 15.1721 4.80243 15.185 4.81731 15.1874C8.24961 15.7478 11.7501 15.7478 15.1824 15.1874C15.1972 15.185 15.2082 15.1721 15.2082 15.1571V14.1668C15.2082 13.1313 14.3687 12.2918 13.3332 12.2918H13.0491C13.0272 12.2918 13.0053 12.2953 12.9844 12.3021L12.2632 12.5376C10.7925 13.0179 9.20718 13.0179 7.73649 12.5376L7.01523 12.3021C6.99435 12.2953 6.97253 12.2918 6.95056 12.2918H6.6665ZM3.5415 14.1668C3.5415 12.4409 4.94061 11.0418 6.6665 11.0418H6.95056C7.10431 11.0418 7.25708 11.0661 7.40323 11.1139L8.12449 11.3494C9.34306 11.7473 10.6566 11.7473 11.8752 11.3494L12.5964 11.1139C12.7426 11.0661 12.8954 11.0418 13.0491 11.0418H13.3332C15.0591 11.0418 16.4582 12.4409 16.4582 14.1668V15.1571C16.4582 15.7848 16.0033 16.32 15.3838 16.4211C11.8181 17.0032 8.18159 17.0032 4.6159 16.4211C3.99641 16.32 3.5415 15.7848 3.5415 15.1571V14.1668Z" fill="#274765"/>
</svg>
