<svg width="28" height="28" viewBox="0 0 28 28" fill="none" xmlns="http://www.w3.org/2000/svg">
<g clip-path="url(#clip0_263_2547)">
<path d="M13.9986 4.97876C9.02426 4.97876 4.97729 9.02573 4.97729 14.0001C4.97729 18.9744 9.02426 23.0214 13.9986 23.0214C18.973 23.0214 23.0199 18.9744 23.0199 14.0001C23.0199 9.02573 18.973 4.97876 13.9986 4.97876ZM13.9986 21.3812C9.92869 21.3812 6.61754 18.07 6.61754 14.0001C6.61754 9.93015 9.92869 6.619 13.9986 6.619C18.0685 6.619 21.3797 9.93015 21.3797 14.0001C21.3797 18.07 18.0686 21.3812 13.9986 21.3812Z" fill="#274765"/>
<path d="M17.5193 10.9598L13.1785 15.3006L10.4779 12.6001C10.1577 12.2798 9.63838 12.2798 9.31809 12.6001C8.99781 12.9203 8.99781 13.4396 9.31809 13.7599L12.5986 17.0404C12.7587 17.2005 12.9686 17.2806 13.1785 17.2806C13.3883 17.2806 13.5982 17.2006 13.7583 17.0404L18.679 12.1196C18.9993 11.7993 18.9993 11.2801 18.679 10.9598C18.3589 10.6395 17.8396 10.6395 17.5193 10.9598Z" fill="#274765"/>
<path d="M26.8256 8.25021C26.8229 8.24852 23.9612 6.53556 23.9612 6.53556L23.3189 3.8752C23.0338 2.69472 21.9484 1.90571 20.7374 1.99964L17.4764 2.25202C17.4764 2.25202 15.5979 0.594173 15.5942 0.591057C14.6698 -0.196368 13.3278 -0.196368 12.4033 0.591057C12.3997 0.594173 10.5212 2.25202 10.5212 2.25202L7.26013 1.99964C6.05888 1.90637 4.98173 2.6816 4.68594 3.84579L3.79168 6.69521C3.79168 6.69521 1.17785 8.24808 1.1744 8.25021C0.139795 8.88608 -0.274913 10.1624 0.188401 11.2849L1.3042 13.9889L0.188401 16.6927C-0.274913 17.8153 0.139795 19.0916 1.17446 19.7275C1.17763 19.7294 4.03373 21.4312 4.03373 21.4312L4.67878 24.1025C4.94843 25.2194 5.93466 25.9857 7.06566 25.9856C7.23865 25.9856 7.04433 25.9921 10.4873 25.7283C10.4873 25.7283 12.4003 27.407 12.4034 27.4096C12.8656 27.8033 13.4322 28.0002 13.9988 28.0002C14.5654 28.0002 15.1321 27.8033 15.5943 27.4096C15.5974 27.407 17.5104 25.7283 17.5104 25.7283L20.7374 25.978C21.948 26.0716 23.0339 25.283 23.3189 24.1025L23.9613 21.4421C27.463 19.3459 26.7205 19.7923 26.8257 19.7274C27.8602 19.0915 28.275 17.8153 27.8116 16.6927L26.6958 13.9888L27.8116 11.2848C28.2749 10.1624 27.8602 8.88614 26.8256 8.25021ZM25.0505 14.3017L26.2954 17.3185C26.4494 17.6915 26.3125 18.1154 25.9701 18.3281L22.8236 20.2116C22.6348 20.3246 22.4993 20.5088 22.4476 20.7227L21.7244 23.7176C21.6295 24.1111 21.2682 24.3739 20.864 24.3428L17.2924 24.0663C17.0724 24.0493 16.8542 24.1218 16.6882 24.2676L14.5268 26.1643C14.22 26.4225 13.7776 26.4225 13.4708 26.1642L11.3095 24.2676C11.1434 24.1218 10.9251 24.0492 10.7053 24.0663L7.13373 24.3428C6.72984 24.3739 6.36823 24.1111 6.27326 23.7176L5.54723 20.7108C5.49545 20.4964 5.35937 20.3118 5.16981 20.1988L2.02935 18.3276C1.68742 18.1148 1.55084 17.6912 1.70469 17.3184L2.94964 14.3017C3.03236 14.1013 3.03236 13.8763 2.94964 13.676L1.70453 10.6592C1.55078 10.2866 1.6872 9.86328 2.02875 9.65038L4.89917 7.94513C5.07282 7.84196 5.20229 7.67837 5.26276 7.48564C6.3206 4.11293 6.2609 4.3109 6.27315 4.26011C6.36812 3.86667 6.72875 3.60347 7.13362 3.63496L10.7405 3.91413C10.9618 3.93119 11.1802 3.85803 11.3465 3.71134L13.4716 1.83578C13.7779 1.57848 14.2195 1.57848 14.5259 1.83567L16.6511 3.71134C16.8173 3.85814 17.0362 3.93119 17.257 3.91413L20.8639 3.63496C21.2674 3.6038 21.6294 3.86662 21.7244 4.26017L22.4476 7.25503C22.4992 7.46897 22.6347 7.65317 22.8236 7.76623L25.97 9.64967C26.3125 9.8623 26.4494 10.2862 26.2953 10.6592L25.0504 13.676C24.9677 13.8764 24.9677 14.1013 25.0505 14.3017Z" fill="#274765"/>
</g>
<defs>
<clipPath id="clip0_263_2547">
<rect width="28" height="28" fill="white"/>
</clipPath>
</defs>
</svg>
