<svg width="24" height="24" viewBox="0 0 24 24" fill="none" xmlns="http://www.w3.org/2000/svg">
<path d="M12.4286 3C12.0876 3 11.7606 3.13546 11.5194 3.37658C11.2783 3.6177 11.1429 3.94472 11.1429 4.28571V19.7143C11.1429 20.0553 11.2783 20.3823 11.5194 20.6234C11.7606 20.8645 12.0876 21 12.4286 21C12.7696 21 13.0966 20.8645 13.3377 20.6234C13.5788 20.3823 13.7143 20.0553 13.7143 19.7143V4.28571C13.7143 3.94472 13.5788 3.6177 13.3377 3.37658C13.0966 3.13546 12.7696 3 12.4286 3ZM6.28571 10.7143C5.94472 10.7143 5.6177 10.8497 5.37658 11.0909C5.13546 11.332 5 11.659 5 12V19.7143C5 20.0553 5.13546 20.3823 5.37658 20.6234C5.6177 20.8645 5.94472 21 6.28571 21C6.62671 21 6.95373 20.8645 7.19485 20.6234C7.43597 20.3823 7.57143 20.0553 7.57143 19.7143V12C7.57143 11.659 7.43597 11.332 7.19485 11.0909C6.95373 10.8497 6.62671 10.7143 6.28571 10.7143ZM18.5714 6.85714C18.2304 6.85714 17.9034 6.9926 17.6623 7.23372C17.4212 7.47484 17.2857 7.80186 17.2857 8.14286V19.7143C17.2857 20.0553 17.4212 20.3823 17.6623 20.6234C17.9034 20.8645 18.2304 21 18.5714 21C18.9124 21 19.2394 20.8645 19.4806 20.6234C19.7217 20.3823 19.8571 20.0553 19.8571 19.7143V8.14286C19.8571 7.80186 19.7217 7.47484 19.4806 7.23372C19.2394 6.9926 18.9124 6.85714 18.5714 6.85714Z" stroke="#B1B1B1" stroke-width="1.2"/>
</svg>
