<svg width="32" height="32" viewBox="0 0 32 32" fill="none" xmlns="http://www.w3.org/2000/svg">
<path d="M15.5715 4C15.1169 4 14.6808 4.18061 14.3593 4.5021C14.0378 4.82359 13.8572 5.25963 13.8572 5.71429V26.2857C13.8572 26.7404 14.0378 27.1764 14.3593 27.4979C14.6808 27.8194 15.1169 28 15.5715 28C16.0262 28 16.4622 27.8194 16.7837 27.4979C17.1052 27.1764 17.2858 26.7404 17.2858 26.2857V5.71429C17.2858 5.25963 17.1052 4.82359 16.7837 4.5021C16.4622 4.18061 16.0262 4 15.5715 4ZM7.38103 14.2857C6.92638 14.2857 6.49034 14.4663 6.16885 14.7878C5.84736 15.1093 5.66675 15.5453 5.66675 16V26.2857C5.66675 26.7404 5.84736 27.1764 6.16885 27.4979C6.49034 27.8194 6.92638 28 7.38103 28C7.83569 28 8.27173 27.8194 8.59322 27.4979C8.91471 27.1764 9.09532 26.7404 9.09532 26.2857V16C9.09532 15.5453 8.91471 15.1093 8.59322 14.7878C8.27173 14.4663 7.83569 14.2857 7.38103 14.2857ZM23.762 9.14286C23.3073 9.14286 22.8713 9.32347 22.5498 9.64496C22.2283 9.96645 22.0477 10.4025 22.0477 10.8571V26.2857C22.0477 26.7404 22.2283 27.1764 22.5498 27.4979C22.8713 27.8194 23.3073 28 23.762 28C24.2166 28 24.6527 27.8194 24.9742 27.4979C25.2957 27.1764 25.4763 26.7404 25.4763 26.2857V10.8571C25.4763 10.4025 25.2957 9.96645 24.9742 9.64496C24.6527 9.32347 24.2166 9.14286 23.762 9.14286Z" stroke="#274765" stroke-width="1.4"/>
</svg>
