<svg width="38" height="38" viewBox="0 0 38 38" fill="none" xmlns="http://www.w3.org/2000/svg">
<path d="M12.6663 15.0418C11.5733 15.0418 10.6872 15.9279 10.6872 17.021C10.6872 18.114 11.5733 19.0001 12.6663 19.0001C13.7594 19.0001 14.6455 18.114 14.6455 17.021C14.6455 15.9279 13.7594 15.0418 12.6663 15.0418Z" fill="#274765"/>
<path d="M18.9997 15.0418C17.9066 15.0418 17.0205 15.9279 17.0205 17.021C17.0205 18.114 17.9066 19.0001 18.9997 19.0001C20.0927 19.0001 20.9788 18.114 20.9788 17.021C20.9788 15.9279 20.0927 15.0418 18.9997 15.0418Z" fill="#274765"/>
<path d="M23.3538 17.021C23.3538 15.9279 24.2399 15.0418 25.333 15.0418C26.4261 15.0418 27.3122 15.9279 27.3122 17.021C27.3122 18.114 26.4261 19.0001 25.333 19.0001C24.2399 19.0001 23.3538 18.114 23.3538 17.021Z" fill="#274765"/>
<path fill-rule="evenodd" clip-rule="evenodd" d="M25.4925 7.27204C21.2267 6.90825 16.9386 6.88714 12.6694 7.20891L12.3635 7.23197C8.29223 7.53881 5.14551 10.9316 5.14551 15.0144V28.5001C5.14551 28.9179 5.36506 29.305 5.72366 29.5194C6.08226 29.7338 6.52713 29.7439 6.89515 29.5461L13.0872 26.2184C13.3753 26.0636 13.6972 25.9826 14.0241 25.9826H28.2368C30.0293 25.9826 31.5654 24.7011 31.8867 22.9376C32.5379 19.3637 32.5893 15.7062 32.0389 12.1154L31.8767 11.0572C31.5814 9.13069 30.0054 7.6569 28.0634 7.49129L25.4925 7.27204ZM12.8479 9.57719C16.9905 9.26497 21.1514 9.28545 25.2907 9.63845L27.8616 9.8577C28.7108 9.93012 29.4 10.5746 29.5291 11.4171L29.6913 12.4752C30.2018 15.8054 30.1541 19.1974 29.5502 22.5119C29.4346 23.1465 28.8818 23.6076 28.2368 23.6076H14.0241C13.3048 23.6076 12.5966 23.7859 11.9629 24.1264L7.52051 26.5138V15.0144C7.52051 12.1741 9.70965 9.81372 12.542 9.60025L12.8479 9.57719Z" fill="#274765"/>
</svg>
