<svg width="20" height="20" viewBox="0 0 20 20" fill="none" xmlns="http://www.w3.org/2000/svg">
<path d="M6.13794 7.92005C5.44758 7.92005 4.88794 8.4797 4.88794 9.17005C4.88794 9.86041 5.44758 10.4201 6.13794 10.4201C6.8283 10.4201 7.38794 9.86041 7.38794 9.17005C7.38794 8.4797 6.8283 7.92005 6.13794 7.92005Z" fill="#B1B1B1"/>
<path d="M10.1379 7.92005C9.44758 7.92005 8.88794 8.4797 8.88794 9.17005C8.88794 9.86041 9.44758 10.4201 10.1379 10.4201C10.8283 10.4201 11.3879 9.86041 11.3879 9.17005C11.3879 8.4797 10.8283 7.92005 10.1379 7.92005Z" fill="#B1B1B1"/>
<path d="M12.8879 9.17005C12.8879 8.4797 13.4476 7.92005 14.1379 7.92005C14.8283 7.92005 15.3879 8.4797 15.3879 9.17005C15.3879 9.86041 14.8283 10.4201 14.1379 10.4201C13.4476 10.4201 12.8879 9.86041 12.8879 9.17005Z" fill="#B1B1B1"/>
<path fill-rule="evenodd" clip-rule="evenodd" d="M14.2387 3.01284C11.5445 2.78308 8.8362 2.76975 6.13988 2.97297L5.94665 2.98753C3.37535 3.18133 1.38794 5.32416 1.38794 7.90276V16.4201C1.38794 16.6839 1.52661 16.9284 1.75309 17.0638C1.97957 17.1992 2.26055 17.2056 2.49298 17.0807L6.40377 14.979C6.58568 14.8812 6.78898 14.8301 6.9955 14.8301H15.9719C17.104 14.8301 18.0742 14.0207 18.2771 12.9069C18.6884 10.6497 18.7209 8.33971 18.3733 6.0718L18.2708 5.40348C18.0843 4.18673 17.0889 3.25591 15.8624 3.15131L14.2387 3.01284ZM6.25262 4.46873C8.86897 4.27153 11.4969 4.28447 14.1112 4.50742L15.7349 4.64589C16.2713 4.69163 16.7066 5.09867 16.7881 5.63074L16.8906 6.29907C17.213 8.40235 17.1828 10.5446 16.8014 12.638C16.7284 13.0388 16.3793 13.3301 15.9719 13.3301H6.9955C6.54116 13.3301 6.0939 13.4426 5.69369 13.6577L2.88794 15.1656V7.90276C2.88794 6.10886 4.27056 4.61811 6.05938 4.48329L6.25262 4.46873Z" fill="#B1B1B1"/>
</svg>
