<svg width="38" height="38" viewBox="0 0 38 38" fill="none" xmlns="http://www.w3.org/2000/svg">
<path fill-rule="evenodd" clip-rule="evenodd" d="M19 4.8754L15.4964 8.50045C15.1235 8.88629 14.6099 9.10417 14.0733 9.10417H9.10417V14.0733C9.10417 14.6099 8.88629 15.1235 8.50045 15.4964L4.8754 19L8.50045 22.5036C8.88629 22.8765 9.10417 23.3901 9.10417 23.9267V28.8958H14.0733C14.6099 28.8958 15.1235 29.1137 15.4964 29.4996L19 33.1246L22.5036 29.4996C22.8765 29.1137 23.3901 28.8958 23.9267 28.8958H28.8958V23.9267C28.8958 23.3901 29.1137 22.8765 29.4996 22.5036L33.1246 19L29.4996 15.4964C29.1137 15.1235 28.8958 14.6099 28.8958 14.0733V9.10417H23.9267C23.3901 9.10417 22.8765 8.88629 22.5036 8.50045L19 4.8754ZM17.5769 2.93039C18.3549 2.12542 19.6451 2.12542 20.4231 2.93039L24.0946 6.72917H29.2917C30.3847 6.72917 31.2708 7.61528 31.2708 8.70834V13.9054L35.0696 17.5769C35.8746 18.3549 35.8746 19.6451 35.0696 20.4231L31.2708 24.0946V29.2917C31.2708 30.3847 30.3847 31.2708 29.2917 31.2708H24.0946L20.4231 35.0696C19.6451 35.8746 18.3549 35.8746 17.5769 35.0696L13.9054 31.2708H8.70834C7.61527 31.2708 6.72917 30.3847 6.72917 29.2917V24.0947L2.93039 20.4231C2.12542 19.6451 2.12542 18.3549 2.93039 17.5769L6.72917 13.9054V8.70834C6.72917 7.61527 7.61528 6.72917 8.70834 6.72917H13.9054L17.5769 2.93039Z" fill="#274765"/>
<path fill-rule="evenodd" clip-rule="evenodd" d="M11.4792 19C11.4792 14.8464 14.8464 11.4792 19 11.4792C23.1536 11.4792 26.5208 14.8464 26.5208 19C26.5208 23.1536 23.1536 26.5208 19 26.5208C14.8464 26.5208 11.4792 23.1536 11.4792 19ZM19 13.8542C16.158 13.8542 13.8542 16.158 13.8542 19C13.8542 21.842 16.158 24.1458 19 24.1458C21.842 24.1458 24.1458 21.842 24.1458 19C24.1458 16.158 21.842 13.8542 19 13.8542Z" fill="#274765"/>
</svg>
