<svg width="145" height="37" viewBox="0 0 145 37" fill="none" xmlns="http://www.w3.org/2000/svg">
<path d="M46.4408 28.9882L48.246 24.7929C50.1968 26.2496 52.7882 27.0071 55.3504 27.0071C57.243 27.0071 58.4368 26.2787 58.4368 25.1716C58.4077 22.0835 47.1105 24.5016 47.0231 16.752C46.994 12.8189 50.488 9.78896 55.4378 9.78896C58.3785 9.78896 61.3193 10.5173 63.4157 12.1779L61.7269 16.4606C59.8053 15.237 57.4177 14.363 55.1466 14.363C53.6034 14.363 52.5844 15.0913 52.5844 16.0236C52.6135 19.0535 63.998 17.3929 64.1145 24.7929C64.1145 28.8134 60.7079 31.6394 55.8163 31.6394C52.235 31.6394 48.9448 30.7945 46.4408 28.9882ZM115.709 23.2779C114.806 24.8512 113.117 25.9291 111.167 25.9291C108.284 25.9291 105.955 23.5984 105.955 20.7142C105.955 17.8299 108.284 15.4992 111.167 15.4992C113.117 15.4992 114.806 16.5772 115.709 18.1504L120.688 15.3827C118.824 12.0614 115.243 9.78896 111.167 9.78896C105.14 9.78896 100.248 14.6834 100.248 20.7142C100.248 26.7449 105.14 31.6394 111.167 31.6394C115.272 31.6394 118.824 29.396 120.688 26.0457L115.709 23.2779ZM66.6185 0.728333H72.8494V31.2315H66.6185V0.728333ZM123.134 0.728333V31.2315H129.364V22.0835L136.76 31.2315H144.738L135.333 20.3646L144.039 10.226H136.411L129.364 18.6457V0.728333H123.134ZM91.3675 23.3362C90.4649 24.822 88.6014 25.9291 86.5051 25.9291C83.6225 25.9291 81.2932 23.5984 81.2932 20.7142C81.2932 17.8299 83.6225 15.4992 86.5051 15.4992C88.6014 15.4992 90.4649 16.6646 91.3675 18.1795V23.3362ZM91.3675 10.226V12.7023C90.3484 10.9834 87.8153 9.78896 85.1657 9.78896C79.6918 9.78896 75.3826 14.6252 75.3826 20.685C75.3826 26.7449 79.6918 31.6394 85.1657 31.6394C87.8153 31.6394 90.3484 30.4449 91.3675 28.726V31.2023H97.5984V10.226H91.3675Z" fill="black"/>
<path d="M7.91978 23.3071C7.91978 25.4339 6.20191 27.1528 4.07641 27.1528C1.9509 27.1528 0.233032 25.4339 0.233032 23.3071C0.233032 21.1803 1.9509 19.4614 4.07641 19.4614H7.91978V23.3071ZM9.84147 23.3071C9.84147 21.1803 11.5593 19.4614 13.6848 19.4614C15.8103 19.4614 17.5282 21.1803 17.5282 23.3071V32.9213C17.5282 35.048 15.8103 36.7669 13.6848 36.7669C11.5593 36.7669 9.84147 35.048 9.84147 32.9213V23.3071Z" fill="#E01E5A"/>
<path d="M13.6848 7.86614C11.5593 7.86614 9.84141 6.14725 9.84141 4.02047C9.84141 1.8937 11.5593 0.174805 13.6848 0.174805C15.8103 0.174805 17.5282 1.8937 17.5282 4.02047V7.86614H13.6848ZM13.6848 9.81811C15.8103 9.81811 17.5282 11.537 17.5282 13.6638C17.5282 15.7906 15.8103 17.5095 13.6848 17.5095H4.04723C1.92173 17.5095 0.203857 15.7906 0.203857 13.6638C0.203857 11.537 1.92173 9.81811 4.04723 9.81811H13.6848Z" fill="#36C5F0"/>
<path d="M29.0874 13.6638C29.0874 11.537 30.8053 9.81811 32.9308 9.81811C35.0563 9.81811 36.7742 11.537 36.7742 13.6638C36.7742 15.7906 35.0563 17.5095 32.9308 17.5095H29.0874V13.6638ZM27.1658 13.6638C27.1658 15.7906 25.4479 17.5095 23.3224 17.5095C21.1969 17.5095 19.479 15.7906 19.479 13.6638V4.02047C19.479 1.8937 21.1969 0.174805 23.3224 0.174805C25.4479 0.174805 27.1658 1.8937 27.1658 4.02047V13.6638Z" fill="#2EB67D"/>
<path d="M23.3224 29.0756C25.4479 29.0756 27.1657 30.7945 27.1657 32.9213C27.1657 35.048 25.4479 36.7669 23.3224 36.7669C21.1969 36.7669 19.479 35.048 19.479 32.9213V29.0756H23.3224ZM23.3224 27.1528C21.1969 27.1528 19.479 25.4339 19.479 23.3071C19.479 21.1803 21.1969 19.4614 23.3224 19.4614H32.9599C35.0854 19.4614 36.8033 21.1803 36.8033 23.3071C36.8033 25.4339 35.0854 27.1528 32.9599 27.1528H23.3224Z" fill="#ECB22E"/>
</svg>
