<svg width="22" height="20" viewBox="0 0 22 20" fill="none" xmlns="http://www.w3.org/2000/svg">
<path fill-rule="evenodd" clip-rule="evenodd" d="M9.36026 1.45704C10.0909 0.197913 11.9092 0.197917 12.6398 1.45704L14.8773 5.31301C15.0835 5.66844 15.44 5.91098 15.8463 5.97235L19.5617 6.53353C21.1813 6.77814 21.7494 8.82301 20.4881 9.86799L17.781 12.1108C17.401 12.4256 17.2223 12.9222 17.3146 13.4069L18.073 17.3892C18.37 18.9492 16.7324 20.1612 15.3273 19.4214L11.6309 17.4751C11.236 17.2671 10.764 17.2671 10.3691 17.4751L6.67275 19.4214C5.26765 20.1612 3.63006 18.9492 3.9271 17.3892L4.68542 13.4069C4.77772 12.9222 4.59906 12.4256 4.21909 12.1108L1.51194 9.86799C0.250636 8.82301 0.81874 6.77814 2.43832 6.53353L6.15377 5.97235C6.56009 5.91098 6.91656 5.66844 7.12279 5.31301L9.36026 1.45704ZM11.2343 2.2726C11.1299 2.09273 10.8701 2.09273 10.7658 2.2726L8.52831 6.12858C8.07459 6.91051 7.29035 7.44412 6.39645 7.57913L2.681 8.1403C2.44963 8.17525 2.36848 8.46737 2.54866 8.61665L5.25581 10.8595C6.09174 11.5521 6.4848 12.6445 6.28173 13.7109L5.52342 17.6932C5.48099 17.916 5.71493 18.0892 5.91566 17.9835L9.61203 16.0372C10.4808 15.5797 11.5192 15.5797 12.388 16.0372L16.0844 17.9835C16.2851 18.0892 16.5191 17.916 16.4766 17.6932L15.7183 13.7109C15.5153 12.6445 15.9083 11.5521 16.7443 10.8595L19.4514 8.61665C19.6316 8.46737 19.5504 8.17525 19.3191 8.1403L15.6036 7.57913C14.7097 7.44412 13.9255 6.91051 13.4717 6.12858L11.2343 2.2726Z" fill="#FFC344"/>
</svg>
