<svg width="18" height="18" viewBox="0 0 18 18" fill="none" xmlns="http://www.w3.org/2000/svg">
<path fill-rule="evenodd" clip-rule="evenodd" d="M4.34059 10.5147C4.37342 10.5258 4.40656 10.5336 4.43966 10.5384C4.47576 10.6233 4.52241 10.733 4.57683 10.8614C4.70963 11.1746 4.88858 11.5982 5.07329 12.0401C5.44997 12.9414 5.82993 13.8705 5.91384 14.1364C6.01773 14.4651 6.12753 14.6886 6.24741 14.8412C6.30939 14.9201 6.38108 14.989 6.46496 15.0412C6.50719 15.0674 6.55179 15.089 6.59835 15.105C6.6004 15.1057 6.60245 15.1064 6.6045 15.1071C6.84451 15.1977 7.06333 15.16 7.20033 15.1138C7.27364 15.0891 7.33295 15.0593 7.37499 15.0351C7.39642 15.0228 7.41453 15.0113 7.42897 15.0016L7.43238 14.9993L9.55205 13.6774L12.0004 15.5545C12.0366 15.5823 12.076 15.6055 12.1177 15.6237C12.4118 15.7521 12.6967 15.7968 12.9646 15.7602C13.2321 15.7237 13.4445 15.6113 13.6025 15.4848C13.7574 15.361 13.8623 15.2223 13.9277 15.1192C13.961 15.0665 13.9861 15.02 14.0038 14.9843C14.0127 14.9664 14.0198 14.951 14.0253 14.9386L14.0324 14.9222L14.035 14.9158L14.0362 14.913L14.0367 14.9118L14.0371 14.9106C14.05 14.8784 14.0599 14.8452 14.0666 14.8112L16.3018 3.54205C16.3089 3.50601 16.3125 3.46936 16.3125 3.43262C16.3125 3.10261 16.1882 2.78881 15.8958 2.59839C15.6459 2.43564 15.3675 2.42863 15.1916 2.44199C15.0018 2.45639 14.8265 2.50324 14.7089 2.54068C14.6477 2.56016 14.5964 2.57896 14.5594 2.5933C14.5408 2.60051 14.5256 2.60669 14.5142 2.61141L14.5057 2.615L1.97038 7.53241L1.96876 7.53299C1.96077 7.5359 1.95051 7.53972 1.93832 7.54447C1.91405 7.55392 1.88153 7.56724 1.84354 7.58445C1.76945 7.61803 1.66551 7.67051 1.55886 7.74355C1.38847 7.86023 0.996599 8.17981 1.06259 8.70728C1.11523 9.12809 1.40351 9.38653 1.57915 9.5108C1.6756 9.57904 1.76722 9.62785 1.83395 9.65961C1.86491 9.67435 1.92918 9.70046 1.95707 9.71179L1.9641 9.71465L4.34059 10.5147ZM14.9444 3.6509L14.9426 3.65166C14.9364 3.65437 14.9301 3.65697 14.9237 3.65946L2.37324 8.58284C2.36669 8.58541 2.36009 8.58785 2.35344 8.59018L2.34645 8.59283C2.33843 8.59595 2.32491 8.60144 2.30794 8.60913C2.29832 8.61349 2.28828 8.61825 2.27804 8.62335C2.29211 8.63127 2.30557 8.63815 2.31753 8.64385C2.32901 8.64931 2.33777 8.65305 2.34256 8.65502L4.69953 9.44851C4.74267 9.46304 4.78289 9.48228 4.81981 9.50548L12.6024 4.94961L12.6097 4.9453C12.6154 4.94195 12.6228 4.93765 12.6317 4.9326C12.6494 4.92259 12.6738 4.90926 12.7027 4.89453C12.7567 4.86704 12.8431 4.82623 12.9405 4.79614C13.0083 4.77519 13.2081 4.71617 13.4242 4.78548C13.5576 4.82825 13.6956 4.92021 13.7854 5.07599C13.83 5.15338 13.8538 5.23112 13.8653 5.30229C13.8959 5.4144 13.8911 5.5251 13.8671 5.62068C13.8156 5.82656 13.6709 5.98715 13.5393 6.10999C13.4266 6.2153 11.9675 7.62219 10.5281 9.01101C9.81035 9.7036 9.09988 10.3893 8.56885 10.902L8.22006 11.2387L12.624 14.615C12.725 14.6512 12.7847 14.6493 12.8124 14.6456C12.8453 14.6411 12.8722 14.6284 12.8997 14.6064C12.9305 14.5818 12.9574 14.5485 12.9775 14.5168L12.9783 14.5155L15.1462 3.58576C15.114 3.5935 15.0815 3.6027 15.0501 3.61268C15.0146 3.62399 14.9853 3.63475 14.9659 3.64228C14.9563 3.646 14.9494 3.64883 14.9456 3.65039L14.9444 3.6509ZM8.59841 12.9463L7.7198 12.2727L7.5069 13.627L8.59841 12.9463ZM6.91378 10.9361L7.78752 10.0926C8.31858 9.57991 9.02911 8.89409 9.74698 8.20143L10.4764 7.49775L5.58633 10.3603L5.61257 10.4222C5.74585 10.7365 5.92559 11.162 6.11128 11.6063C6.25012 11.9385 6.39531 12.2883 6.52756 12.6122L6.73983 11.2619C6.7603 11.1317 6.8239 11.019 6.91378 10.9361Z" fill="#274765"/>
</svg>
