<svg width="16" height="16" viewBox="0 0 16 16" fill="none" xmlns="http://www.w3.org/2000/svg">
<path d="M14.5398 4.15145C14.5785 4.0976 14.5214 4.02808 14.4596 4.05203C14.0205 4.22225 13.5615 4.3371 13.0934 4.39369C13.6146 4.08228 14.0169 3.60822 14.2399 3.04698C14.2627 2.98981 14.2002 2.93875 14.1464 2.96849C13.6619 3.23605 13.1394 3.42872 12.5966 3.53967C12.5739 3.54432 12.5505 3.53658 12.5345 3.51975C12.1272 3.08997 11.5911 2.80381 11.0066 2.70493C10.4098 2.60396 9.79638 2.70393 9.26255 2.98915C8.72871 3.27437 8.30464 3.72871 8.05685 4.28092C7.82124 4.80596 7.75767 5.39123 7.87387 5.95332C7.88289 5.99693 7.84875 6.0381 7.8043 6.03534C6.74827 5.96975 5.71646 5.68887 4.77246 5.2096C3.83085 4.73155 2.99703 4.06651 2.32178 3.25549C2.29181 3.2195 2.23501 3.22415 2.21318 3.26559C2.00306 3.6643 1.89305 4.1087 1.89335 4.56036C1.8925 5.00995 2.00283 5.45277 2.21452 5.8494C2.42621 6.24603 2.7327 6.58417 3.10669 6.83369C2.71007 6.8229 2.32118 6.72485 1.96752 6.54707C1.92194 6.52416 1.86727 6.55678 1.86964 6.60774C1.89722 7.20057 2.11485 7.79572 2.49156 8.25234C2.89244 8.73825 3.44886 9.07079 4.06669 9.19369C3.82886 9.26607 3.58194 9.30423 3.33335 9.30703C3.19806 9.30545 3.06303 9.29546 2.92904 9.27714C2.87936 9.27035 2.8388 9.31754 2.85619 9.36457C3.04047 9.8629 3.36602 10.2977 3.79407 10.6151C4.2517 10.9545 4.80374 11.1427 5.37335 11.1537C4.41149 11.9105 3.22394 12.3236 2.00002 12.327C1.87426 12.3274 1.74855 12.3234 1.62314 12.3148C1.55247 12.31 1.51996 12.4042 1.58088 12.4403C2.77339 13.148 4.13641 13.5221 5.52669 13.5204C6.55315 13.531 7.57144 13.337 8.5221 12.9497C9.47275 12.5625 10.3367 11.9896 11.0635 11.2647C11.7903 10.5398 12.3653 9.67729 12.7551 8.72763C13.1448 7.77797 13.3414 6.76018 13.3334 5.73369V5.41381C13.3334 5.39276 13.3433 5.37297 13.3601 5.36028C13.8123 5.01885 14.21 4.61123 14.5398 4.15145Z" fill="white"/>
</svg>
