<svg width="44" height="44" viewBox="0 0 44 44" fill="none" xmlns="http://www.w3.org/2000/svg">
<path d="M37.1071 9.99298C36.7988 9.72215 36.3956 9.58473 35.986 9.61088C35.5765 9.63702 35.194 9.82459 34.9226 10.1324L32.0254 13.4634L31.0494 12.3634C30.7761 12.0552 30.3917 11.8682 29.9805 11.8435C29.5694 11.8188 29.1653 11.9585 28.8571 12.2317C28.549 12.5049 28.362 12.8894 28.3373 13.3005C28.3126 13.7117 28.4522 14.1158 28.7255 14.4239L30.879 16.8408C31.0256 17.0033 31.2049 17.1328 31.4052 17.2209C31.6055 17.3091 31.8221 17.3538 32.0409 17.3521C32.2583 17.3496 32.4727 17.3015 32.6702 17.2107C32.8677 17.12 33.044 16.9887 33.1874 16.8253L37.2311 12.1775C37.5038 11.8711 37.6439 11.4691 37.6206 11.0596C37.5974 10.6501 37.4127 10.2665 37.1071 9.99298Z" fill="#274765"/>
<path d="M19.0424 20.4507C20.2681 20.4507 21.4663 20.0873 22.4854 19.4063C23.5045 18.7254 24.2988 17.7575 24.7679 16.6251C25.2369 15.4927 25.3596 14.2467 25.1205 13.0446C24.8814 11.8424 24.2912 10.7382 23.4245 9.87151C22.5578 9.00482 21.4536 8.41459 20.2514 8.17548C19.0493 7.93636 17.8033 8.05908 16.6709 8.52813C15.5385 8.99718 14.5706 9.79148 13.8897 10.8106C13.2087 11.8297 12.8453 13.0279 12.8453 14.2536C12.8453 15.8972 13.4982 17.4734 14.6604 18.6356C15.8226 19.7978 17.3988 20.4507 19.0424 20.4507ZM19.0424 11.155C19.6553 11.155 20.2543 11.3367 20.7639 11.6772C21.2735 12.0177 21.6706 12.5016 21.9051 13.0678C22.1397 13.634 22.201 14.257 22.0815 14.8581C21.9619 15.4591 21.6668 16.0112 21.2334 16.4446C20.8001 16.8779 20.248 17.173 19.6469 17.2926C19.0459 17.4122 18.4228 17.3508 17.8566 17.1163C17.2905 16.8818 16.8065 16.4846 16.466 15.975C16.1256 15.4655 15.9438 14.8664 15.9438 14.2536C15.9438 13.4318 16.2703 12.6436 16.8514 12.0625C17.4325 11.4814 18.2206 11.155 19.0424 11.155ZM19.0424 23.5493C16.1661 23.5493 13.4077 24.6919 11.3738 26.7257C9.33999 28.7596 8.19739 31.5181 8.19739 34.3943C8.19739 34.8052 8.36062 35.1993 8.65116 35.4899C8.94171 35.7804 9.33578 35.9436 9.74668 35.9436C10.1576 35.9436 10.5516 35.7804 10.8422 35.4899C11.1327 35.1993 11.296 34.8052 11.296 34.3943C11.296 32.3399 12.1121 30.3695 13.5649 28.9168C15.0176 27.464 16.9879 26.6479 19.0424 26.6479C21.0969 26.6479 23.0673 27.464 24.52 28.9168C25.9727 30.3695 26.7889 32.3399 26.7889 34.3943C26.7889 34.8052 26.9521 35.1993 27.2427 35.4899C27.5332 35.7804 27.9273 35.9436 28.3382 35.9436C28.7491 35.9436 29.1431 35.7804 29.4337 35.4899C29.7242 35.1993 29.8875 34.8052 29.8875 34.3943C29.8875 31.5181 28.7449 28.7596 26.711 26.7257C24.6772 24.6919 21.9187 23.5493 19.0424 23.5493Z" fill="#274765"/>
</svg>
